<svg width="60" height="61" viewBox="0 0 60 61" fill="#4ba947" xmlns="http://www.w3.org/2000/svg">
<path d="M30 55.3452C16.1925 55.3452 5 44.1527 5 30.3452C5 16.5377 16.1925 5.34521 30 5.34521C43.8075 5.34521 55 16.5377 55 30.3452C55 44.1527 43.8075 55.3452 30 55.3452ZM17.5325 45.9852C21.0714 48.8145 25.4692 50.3524 30 50.3452C34.925 50.3452 39.4325 48.5652 42.9175 45.6152C41.2893 43.9446 39.3426 42.6174 37.1926 41.7122C35.0425 40.807 32.7328 40.3422 30.4 40.3452C27.9815 40.3424 25.5888 40.8423 23.3737 41.8132C21.1586 42.7842 19.1695 44.2049 17.5325 45.9852ZM14.04 42.3952C16.1411 40.1654 18.6767 38.3895 21.4903 37.177C24.304 35.9645 27.3362 35.3411 30.4 35.3452C33.3541 35.3414 36.2799 35.9211 39.0094 37.0512C41.7388 38.1812 44.2181 39.8393 46.305 41.9302C48.4452 38.918 49.7091 35.3718 49.9564 31.685C50.2038 27.9982 49.4249 24.3149 47.7062 21.0439C45.9876 17.7728 43.3963 15.0418 40.2199 13.1538C37.0435 11.2659 33.4062 10.2948 29.7115 10.3483C26.0168 10.4019 22.4091 11.4779 19.2888 13.4571C16.1684 15.4363 13.6574 18.2412 12.0342 21.5607C10.4111 24.8802 9.73924 28.5845 10.0933 32.2626C10.4473 35.9407 11.8134 39.4488 14.04 42.3977V42.3952ZM30 32.8452C27.3478 32.8452 24.8043 31.7916 22.9289 29.9163C21.0536 28.0409 20 25.4974 20 22.8452C20 20.193 21.0536 17.6495 22.9289 15.7741C24.8043 13.8988 27.3478 12.8452 30 12.8452C32.6522 12.8452 35.1957 13.8988 37.0711 15.7741C38.9464 17.6495 40 20.193 40 22.8452C40 25.4974 38.9464 28.0409 37.0711 29.9163C35.1957 31.7916 32.6522 32.8452 30 32.8452ZM30 27.8452C31.3261 27.8452 32.5979 27.3184 33.5355 26.3807C34.4732 25.4431 35 24.1713 35 22.8452C35 21.5191 34.4732 20.2474 33.5355 19.3097C32.5979 18.372 31.3261 17.8452 30 17.8452C28.6739 17.8452 27.4021 18.372 26.4645 19.3097C25.5268 20.2474 25 21.5191 25 22.8452C25 24.1713 25.5268 25.4431 26.4645 26.3807C27.4021 27.3184 28.6739 27.8452 30 27.8452Z" fill="#4ba947"/>
</svg>
