<svg width="28" height="27" viewBox="0 0 28 27" fill="none" xmlns="http://www.w3.org/2000/svg">
<path d="M27.78 11.8837L26.4 10.3137C26.24 10.1237 26.16 9.88374 26.18 9.63374L26.37 7.55374C26.5 6.10374 25.53 4.77374 24.12 4.44374L22.07 3.98374C21.83 3.93374 21.62 3.77374 21.49 3.56374L20.43 1.76374C19.68 0.513737 18.12 0.0137367 16.78 0.583737L14.86 1.41374C14.63 1.51374 14.37 1.51374 14.14 1.41374L12.22 0.583737C10.88 0.00373667 9.31 0.513737 8.57 1.76374L7.51 3.56374C7.38 3.77374 7.17 3.93374 6.93 3.98374L4.88 4.44374C3.47 4.76374 2.5 6.10374 2.63 7.54374L2.82 9.63374C2.84 9.88374 2.76 10.1237 2.6 10.3137L1.22 11.8837C0.26 12.9837 0.26 14.6237 1.22 15.7237L2.6 17.2937C2.76 17.4837 2.84 17.7237 2.82 17.9737L2.63 20.0537C2.5 21.5037 3.47 22.8337 4.88 23.1637L6.93 23.6237C7.17 23.6737 7.38 23.8337 7.51 24.0437L8.57 25.8437C9.32 27.0937 10.88 27.5937 12.22 27.0237L14.14 26.1937C14.37 26.0937 14.63 26.0937 14.86 26.1937L16.78 27.0237C17.15 27.1837 17.54 27.2637 17.92 27.2637C18.92 27.2637 19.89 26.7437 20.43 25.8437L21.49 24.0437C21.62 23.8337 21.83 23.6737 22.07 23.6237L24.12 23.1637C25.53 22.8437 26.5 21.5037 26.37 20.0637L26.18 17.9737C26.16 17.7237 26.24 17.4837 26.4 17.2937L27.78 15.7237C28.74 14.6237 28.74 12.9837 27.78 11.8837ZM20.21 11.5137L14.21 17.5137C14.01 17.7037 13.76 17.8037 13.5 17.8037C13.24 17.8037 12.99 17.7037 12.79 17.5137L9.79 14.5137C9.4 14.1237 9.4 13.4837 9.79 13.0937C10.18 12.7037 10.82 12.7037 11.21 13.0937L13.5 15.3937L18.79 10.0937C19.18 9.70374 19.82 9.70374 20.21 10.0937C20.6 10.4837 20.6 11.1237 20.21 11.5137Z" fill="#4BA947"/>
</svg>
