<svg width="28" height="29" viewBox="0 0 28 29" fill="none" xmlns="http://www.w3.org/2000/svg">
<path d="M11.8502 8.04342C12.3515 8.04342 12.7454 7.64956 12.7454 7.14828V1.24036C12.7454 0.739077 12.3515 0.345215 11.8502 0.345215C11.3489 0.345215 10.9551 0.739077 10.9551 1.24036V7.14828C10.9551 7.64956 11.3489 8.04342 11.8502 8.04342Z" fill="#4BA947"/>
<path d="M7.73215 12.0536C7.73215 11.5523 7.33828 11.1584 6.837 11.1584H0.929076C0.427797 11.1584 0.0339355 11.5523 0.0339355 12.0536C0.0339355 12.5549 0.427797 12.9487 0.929076 12.9487H6.837C7.33828 12.9487 7.73215 12.5549 7.73215 12.0536Z" fill="#4BA947"/>
<path d="M6.04859 5.03563C5.69054 4.67758 5.11765 4.67758 4.7954 5.03563C4.43734 5.39369 4.43734 5.96658 4.7954 6.28883L6.6931 8.18653C6.87212 8.36556 7.08696 8.43717 7.3376 8.43717C7.58824 8.43717 7.80307 8.36556 7.9821 8.18653C8.34015 7.82847 8.34015 7.25558 7.9821 6.93333L6.04859 5.03563Z" fill="#4BA947"/>
<path d="M17.2149 7.99683L19.1126 6.09913C19.4706 5.74108 19.4706 5.16819 19.1126 4.84593C18.7545 4.48788 18.1816 4.48788 17.8594 4.84593L15.9617 6.74363C15.6036 7.10169 15.6036 7.67458 15.9617 7.99683C16.1407 8.17586 16.3555 8.24747 16.6062 8.24747C16.8568 8.24747 17.0358 8.17586 17.2149 7.99683Z" fill="#4BA947"/>
<path d="M6.62205 15.9206L4.72435 17.8183C4.3663 18.1764 4.3663 18.7493 4.72435 19.0715C4.90338 19.2506 5.11822 19.3222 5.36885 19.3222C5.61949 19.3222 5.83433 19.2506 6.01336 19.0715L7.91105 17.1738C8.26911 16.8158 8.26911 16.2429 7.91105 15.9206C7.553 15.5626 6.98011 15.5626 6.62205 15.9206Z" fill="#4BA947"/>
<path d="M27.3185 15.7776L12.3518 11.5525C12.0295 11.4809 11.7073 11.5525 11.4925 11.7673C11.2776 11.9822 11.1702 12.3402 11.2418 12.6267L15.3595 27.7008C15.4669 28.0589 15.7891 28.3453 16.183 28.3453H16.2188C16.5769 28.3453 16.9349 28.1305 17.0423 27.7724L19.9426 20.2175L27.3902 17.4246C27.7482 17.2814 27.9989 16.9233 27.963 16.5653C27.9272 16.2072 27.6766 15.885 27.3185 15.7776Z" fill="#4BA947"/>
</svg>
