<svg width="30" height="21" viewBox="0 0 30 21" fill="none" xmlns="http://www.w3.org/2000/svg">
<path d="M2.09501 1.2057C2.7953 0.647152 3.65503 0.345215 4.54003 0.345215H25.4463C26.3313 0.345215 27.1911 0.647145 27.8913 1.2057L16.0634 11.8406C15.4521 12.3855 14.5485 12.3855 13.9373 11.8406L2.09501 1.2057ZM28.8666 18.3881C29.2812 17.7198 29.5005 16.9443 29.5005 16.1511V4.52118C29.5018 3.72794 29.2812 2.95114 28.8666 2.28416L19.9013 10.3361L28.8666 18.3881ZM1.13435 2.2843C0.719739 2.95128 0.499168 3.72808 0.500494 4.52132V16.1512C0.500494 16.9445 0.719749 17.7199 1.13435 18.3882L10.0997 10.3363L1.13435 2.2843ZM18.8209 11.3066L16.9964 12.9466L16.995 12.9452C15.8483 13.9649 14.1527 13.9649 13.0058 12.9452L11.1813 11.3052L2.09484 19.4861C2.79512 20.0432 3.65486 20.3465 4.53986 20.3452H25.4461C26.3365 20.3493 27.2015 20.046 27.9058 19.4861L18.8209 11.3066Z" fill="#4BA947"/>
</svg>
