<svg width="42" height="42" viewBox="0 0 42 42" fill="none" xmlns="http://www.w3.org/2000/svg">
<g clip-path="url(#clip0_389_5990)">
<path d="M21 3.8457C11.3348 3.8457 3.5 11.6805 3.5 21.3457C3.5 30.08 9.89975 37.3197 18.2665 38.634V26.4032H13.8215V21.3457H18.2665V17.4905C18.2665 13.105 20.8775 10.683 24.8763 10.683C26.7908 10.683 28.7927 11.0242 28.7927 11.0242V15.3292H26.5877C24.4125 15.3292 23.7352 16.6785 23.7352 18.0627V21.3457H28.588L27.8127 26.4032H23.7352V38.634C32.1003 37.3215 38.5 30.0782 38.5 21.3457C38.5 11.6805 30.6652 3.8457 21 3.8457Z" fill="#415A94"/>
</g>
<defs>
<clipPath id="clip0_389_5990">
<rect width="42" height="42" fill="white" transform="translate(0 0.345703)"/>
</clipPath>
</defs>
</svg>
