<svg width="40" height="41" viewBox="0 0 40 41" fill="none" xmlns="http://www.w3.org/2000/svg">
<path d="M34 40.3452H6C4.4087 40.3452 2.88258 39.7131 1.75736 38.5879C0.632141 37.4626 0 35.9365 0 34.3452V2.34521C0 1.81478 0.210714 1.30607 0.585786 0.931001C0.960859 0.555928 1.46957 0.345215 2 0.345215H30C30.5304 0.345215 31.0391 0.555928 31.4142 0.931001C31.7893 1.30607 32 1.81478 32 2.34521V26.3452H40V34.3452C40 35.9365 39.3679 37.4626 38.2426 38.5879C37.1174 39.7131 35.5913 40.3452 34 40.3452ZM32 30.3452V34.3452C32 34.8756 32.2107 35.3844 32.5858 35.7594C32.9609 36.1345 33.4696 36.3452 34 36.3452C34.5304 36.3452 35.0391 36.1345 35.4142 35.7594C35.7893 35.3844 36 34.8756 36 34.3452V30.3452H32ZM28 36.3452V4.34521H4V34.3452C4 34.8756 4.21071 35.3844 4.58579 35.7594C4.96086 36.1345 5.46957 36.3452 6 36.3452H28ZM8 10.3452H24V14.3452H8V10.3452ZM8 18.3452H24V22.3452H8V18.3452ZM8 26.3452H18V30.3452H8V26.3452Z" fill="#4BA947"/>
</svg>
