<svg width="236" height="78" viewBox="0 0 236 78" fill="none" xmlns="http://www.w3.org/2000/svg">
<path d="M112.121 10.8919L114.582 18.6277H114.676L117.142 10.8919H119.528L116.018 21.0737H113.244L109.729 10.8919H112.121ZM122.907 10.8919V21.0737H120.754V10.8919H122.907ZM124.678 21.0737V10.8919H131.538V12.6668H126.83V15.0929H131.185V16.8678H126.83V19.2989H131.558V21.0737H124.678ZM132.862 12.6668V10.8919H141.224V12.6668H138.107V21.0737H135.979V12.6668H132.862ZM151.118 10.8919V21.0737H149.258L144.829 14.6653H144.754V21.0737H142.601V10.8919H144.491L148.886 17.2953H148.975V10.8919H151.118ZM154.651 21.0737H152.345L155.859 10.8919H158.634L162.144 21.0737H159.837L157.286 13.2186H157.207L154.651 21.0737ZM154.507 17.0716H159.956V18.752H154.507V17.0716ZM163.369 10.8919H166.024L168.828 17.7328H168.947L171.751 10.8919H174.406V21.0737H172.318V14.4466H172.233L169.598 21.024H168.177L165.542 14.4217H165.457V21.0737H163.369V10.8919Z" fill="#12122B"/>
<path d="M113.891 42.646H110.281V32.4642H113.92C114.945 32.4642 115.826 32.668 116.565 33.0757C117.304 33.48 117.873 34.0617 118.271 34.8207C118.672 35.5797 118.872 36.4879 118.872 37.5451C118.872 38.6057 118.672 39.5172 118.271 40.2795C117.873 41.0418 117.301 41.6268 116.555 42.0345C115.813 42.4422 114.925 42.646 113.891 42.646ZM112.434 40.8015H113.801C114.437 40.8015 114.973 40.6888 115.407 40.4635C115.844 40.2348 116.173 39.8818 116.391 39.4045C116.613 38.9239 116.724 38.3041 116.724 37.5451C116.724 36.7928 116.613 36.178 116.391 35.7007C116.173 35.2234 115.846 34.8721 115.412 34.6467C114.978 34.4213 114.442 34.3086 113.806 34.3086H112.434V40.8015ZM121.647 42.646H119.341L122.856 32.4642H125.63L129.14 42.646H126.833L124.282 34.7909H124.203L121.647 42.646ZM121.503 38.6439H126.952V40.3243H121.503V38.6439ZM128.733 34.239V32.4642H137.095V34.239H133.978V42.646H131.85V34.239H128.733ZM138.983 42.646H136.677L140.192 32.4642H142.966L146.476 42.646H144.169L141.618 34.7909H141.539L138.983 42.646ZM138.839 38.6439H144.288V40.3243H138.839V38.6439ZM159.925 36.0288H157.747C157.708 35.7471 157.626 35.4968 157.504 35.2781C157.381 35.056 157.224 34.8671 157.032 34.7113C156.839 34.5556 156.617 34.4362 156.365 34.3534C156.117 34.2705 155.847 34.2291 155.555 34.2291C155.028 34.2291 154.569 34.36 154.178 34.6218C153.787 34.8804 153.483 35.2582 153.268 35.7554C153.053 36.2492 152.945 36.8491 152.945 37.5551C152.945 38.2809 153.053 38.8908 153.268 39.3846C153.487 39.8785 153.792 40.2513 154.183 40.5032C154.574 40.7551 155.026 40.8811 155.54 40.8811C155.828 40.8811 156.095 40.843 156.34 40.7667C156.589 40.6905 156.809 40.5795 157.002 40.4336C157.194 40.2845 157.353 40.1039 157.479 39.8917C157.608 39.6796 157.698 39.4377 157.747 39.1659L159.925 39.1758C159.869 39.6432 159.728 40.0939 159.502 40.5281C159.28 40.959 158.98 41.3451 158.603 41.6865C158.228 42.0245 157.781 42.293 157.26 42.4919C156.743 42.6874 156.158 42.7852 155.505 42.7852C154.597 42.7852 153.785 42.5797 153.069 42.1687C152.357 41.7577 151.793 41.1628 151.379 40.3839C150.968 39.605 150.762 38.6621 150.762 37.5551C150.762 36.4448 150.971 35.5002 151.389 34.7213C151.806 33.9424 152.373 33.3491 153.089 32.9415C153.805 32.5305 154.61 32.325 155.505 32.325C156.095 32.325 156.642 32.4078 157.146 32.5736C157.653 32.7393 158.102 32.9812 158.493 33.2994C158.884 33.6143 159.202 34.0004 159.448 34.4578C159.696 34.9152 159.855 35.4388 159.925 36.0288ZM161.469 42.646V32.4642H168.329V34.239H163.621V36.6652H167.976V38.44H163.621V40.8711H168.349V42.646H161.469ZM178.557 32.4642V42.646H176.698L172.268 36.2376H172.194V42.646H170.041V32.4642H171.93L176.325 38.8676H176.415V32.4642H178.557ZM179.948 34.239V32.4642H188.31V34.239H185.193V42.646H183.065V34.239H179.948ZM189.687 42.646V32.4642H196.548V34.239H191.84V36.6652H196.195V38.44H191.84V40.8711H196.568V42.646H189.687ZM198.26 42.646V32.4642H202.277C203.046 32.4642 203.702 32.6017 204.245 32.8768C204.792 33.1486 205.208 33.5347 205.493 34.0352C205.782 34.5324 205.926 35.1173 205.926 35.7902C205.926 36.4663 205.78 37.048 205.488 37.5352C205.197 38.0191 204.774 38.3903 204.221 38.6488C203.67 38.9074 203.004 39.0366 202.222 39.0366H199.532V37.3065H201.874C202.285 37.3065 202.626 37.2502 202.898 37.1375C203.17 37.0248 203.372 36.8557 203.505 36.6304C203.641 36.405 203.709 36.1249 203.709 35.7902C203.709 35.4521 203.641 35.1671 203.505 34.9351C203.372 34.7031 203.168 34.5274 202.893 34.4081C202.621 34.2854 202.278 34.2241 201.864 34.2241H200.412V42.646H198.26ZM203.758 38.0125L206.289 42.646H203.912L201.437 38.0125H203.758Z" fill="#12122B"/>
<path d="M119.265 57.6238H117.087C117.048 57.3421 116.966 57.0918 116.844 56.8731C116.721 56.651 116.564 56.4621 116.371 56.3063C116.179 56.1505 115.957 56.0312 115.705 55.9484C115.457 55.8655 115.186 55.8241 114.895 55.8241C114.368 55.8241 113.909 55.955 113.518 56.2168C113.127 56.4753 112.823 56.8532 112.608 57.3503C112.392 57.8442 112.285 58.4441 112.285 59.1501C112.285 59.8759 112.392 60.4858 112.608 60.9796C112.827 61.4734 113.132 61.8463 113.523 62.0982C113.914 62.3501 114.366 62.4761 114.88 62.4761C115.168 62.4761 115.435 62.4379 115.68 62.3617C115.929 62.2855 116.149 62.1744 116.342 62.0286C116.534 61.8795 116.693 61.6988 116.819 61.4867C116.948 61.2746 117.038 61.0326 117.087 60.7609L119.265 60.7708C119.209 61.2381 119.068 61.6889 118.842 62.1231C118.62 62.5539 118.32 62.9401 117.942 63.2814C117.568 63.6195 117.12 63.888 116.6 64.0868C116.083 64.2824 115.498 64.3802 114.845 64.3802C113.937 64.3802 113.125 64.1747 112.409 63.7637C111.696 63.3527 111.133 62.7578 110.719 61.9789C110.308 61.2 110.102 60.2571 110.102 59.1501C110.102 58.0397 110.311 57.0951 110.729 56.3163C111.146 55.5374 111.713 54.9441 112.429 54.5364C113.145 54.1254 113.95 53.9199 114.845 53.9199C115.435 53.9199 115.982 54.0028 116.486 54.1685C116.993 54.3342 117.442 54.5762 117.833 54.8944C118.224 55.2092 118.542 55.5954 118.788 56.0528C119.036 56.5101 119.195 57.0338 119.265 57.6238ZM130.165 59.1501C130.165 60.2604 129.955 61.205 129.534 61.9839C129.116 62.7627 128.546 63.3577 127.823 63.7687C127.104 64.1763 126.296 64.3802 125.397 64.3802C124.492 64.3802 123.68 64.1747 122.961 63.7637C122.242 63.3527 121.674 62.7578 121.256 61.9789C120.838 61.2 120.63 60.2571 120.63 59.1501C120.63 58.0397 120.838 57.0951 121.256 56.3163C121.674 55.5374 122.242 54.9441 122.961 54.5364C123.68 54.1254 124.492 53.9199 125.397 53.9199C126.296 53.9199 127.104 54.1254 127.823 54.5364C128.546 54.9441 129.116 55.5374 129.534 56.3163C129.955 57.0951 130.165 58.0397 130.165 59.1501ZM127.983 59.1501C127.983 58.4308 127.875 57.8243 127.659 57.3305C127.447 56.8366 127.147 56.4621 126.76 56.2069C126.372 55.9517 125.918 55.8241 125.397 55.8241C124.877 55.8241 124.423 55.9517 124.035 56.2069C123.647 56.4621 123.346 56.8366 123.13 57.3305C122.918 57.8243 122.812 58.4308 122.812 59.1501C122.812 59.8693 122.918 60.4758 123.13 60.9697C123.346 61.4635 123.647 61.838 124.035 62.0932C124.423 62.3484 124.877 62.4761 125.397 62.4761C125.918 62.4761 126.372 62.3484 126.76 62.0932C127.147 61.838 127.447 61.4635 127.659 60.9697C127.875 60.4758 127.983 59.8693 127.983 59.1501ZM140.276 54.0591V64.241H138.417L133.987 57.8326H133.912V64.241H131.76V54.0591H133.649L138.044 60.4626H138.133V54.0591H140.276ZM142.055 64.241V54.0591H148.796V55.834H144.207V58.2601H148.349V60.035H144.207V64.241H142.055ZM150.244 64.241V54.0591H157.105V55.834H152.397V58.2601H156.752V60.035H152.397V62.4661H157.125V64.241H150.244ZM160.835 54.0591L162.888 57.5293H162.968L165.031 54.0591H167.462L164.355 59.1501L167.532 64.241H165.056L162.968 60.7658H162.888L160.8 64.241H158.334L161.521 59.1501L158.394 54.0591H160.835Z" fill="#12122B"/>
<path d="M26.9662 51.0658C26.9662 51.0658 26.7926 51.0658 26.7058 51.0224L22.2349 49.1342C20.6723 48.4831 19.7173 47.615 19.5437 46.7034C19.5437 46.66 19.5437 46.6166 19.5437 46.5732V46.2259C19.5437 46.2259 19.5437 46.1391 19.5437 46.0957C19.6305 45.6617 19.9343 45.0757 20.9544 44.6416L29.9179 40.952C30.2435 40.8218 30.6341 40.9737 30.7643 41.2993C30.8945 41.6248 30.7426 42.0155 30.4171 42.1457L21.4753 45.8136C21.1063 45.9655 20.911 46.1391 20.8676 46.2694V46.443C20.9544 46.7251 21.4319 47.3111 22.7775 47.8537L27.0096 49.6334L33.1951 47.029C33.5206 46.8987 33.9113 47.029 34.0416 47.3762C34.1718 47.7018 34.0415 48.0924 33.6943 48.2226L27.2701 50.9356C27.2701 50.9356 27.0964 50.979 27.0096 50.979L26.9662 51.0658Z" fill="url(#paint0_linear_389_6083)"/>
<path d="M70.2646 51.0659C70.2646 51.0659 70.091 51.066 70.0041 51.0226L63.6016 48.3313C63.2761 48.2011 63.1024 47.8104 63.2543 47.4849C63.3846 47.1593 63.7753 46.9857 64.1008 47.1376L70.2428 49.7203L75.7555 47.3981C76.1245 47.2461 76.2981 47.0725 76.3632 46.9423V46.747C76.2547 46.4214 75.6904 45.8571 74.475 45.3362L67.0307 42.2109C66.7052 42.0807 66.5315 41.6901 66.6835 41.3645C66.8137 41.039 67.2044 40.8654 67.5299 41.0173L74.9742 44.1425C76.5151 44.7937 77.4701 45.6401 77.6654 46.5299C77.6654 46.5733 77.6654 46.6167 77.6654 46.6602V47.0508C77.6654 47.0508 77.6654 47.1376 77.6654 47.2027C77.5786 47.6151 77.253 48.2011 76.2764 48.6135L70.5033 51.0442C70.5033 51.0442 70.3297 51.0877 70.2428 51.0877L70.2646 51.0659Z" fill="url(#paint1_linear_389_6083)"/>
<path d="M77.1011 46.3779C76.7755 46.3345 76.4716 46.5515 76.3848 46.8771C76.3631 47.0073 76.1678 47.2026 75.7555 47.3763L51.5779 57.5552C49.9718 58.228 46.6512 57.9892 44.3289 57.0126L22.734 47.9188C21.3233 47.3328 20.8676 46.7252 20.8242 46.4647C20.7591 46.1392 20.4552 45.9004 20.1297 45.9438C19.8041 45.9655 19.5437 46.2477 19.5437 46.5949V54.1694C19.5437 54.1694 19.5437 54.2562 19.5437 54.2996C19.7173 55.2112 20.6723 56.0576 22.2349 56.7304L43.8297 65.8241C45.4358 66.4969 47.3674 66.8442 49.1037 66.8442C50.254 66.8442 51.2957 66.6923 52.0771 66.3667L76.2546 56.1878C77.2313 55.7755 77.5569 55.1895 77.6437 54.7771C77.6437 54.7337 77.6437 54.6903 77.6437 54.6252V47.0507C77.6437 46.7252 77.3833 46.443 77.0577 46.3996L77.1011 46.3779Z" fill="url(#paint2_linear_389_6083)"/>
<path d="M22.2349 67.5175L26.836 69.4491C28.3769 69.7096 29.9396 69.9483 31.5457 70.1437C36.9715 70.8165 42.6361 71.1637 48.3875 71.1637C48.7998 71.1637 49.2122 71.1637 49.6463 71.1637C55.8535 71.1203 61.9304 70.6862 67.7035 69.8615C68.6367 69.7313 69.5483 69.5794 70.4381 69.4274L76.2763 66.9749C77.253 66.5626 77.5786 65.9766 77.6654 65.5642C77.6654 65.5208 77.6654 65.4774 77.6654 65.4123V57.8378C77.6654 57.5123 77.4049 57.2301 77.0793 57.1867C76.7538 57.1433 76.45 57.3603 76.3632 57.6859C76.3415 57.8161 76.1461 58.0114 75.7337 58.1851L51.5562 68.364C49.9502 69.0368 46.6295 68.798 44.3072 67.8214L22.7124 58.7276C21.3017 58.1417 20.8459 57.534 20.8025 57.2735C20.7374 56.948 20.4335 56.7093 20.1079 56.7527C19.7824 56.7744 19.522 57.0565 19.522 57.4037V64.9782C19.522 64.9782 19.522 65.065 19.522 65.1084C19.6956 66.02 20.6505 66.8664 22.2132 67.5393L22.2349 67.5175Z" fill="url(#paint3_linear_389_6083)"/>
<path d="M49.6678 74.679C49.364 74.679 49.0601 74.679 48.778 74.679C45.9999 74.679 43.1785 74.5922 40.3788 74.4403C39.6842 74.3969 39.0115 74.3535 38.3604 74.3101L43.8513 76.6323C45.4574 77.3051 47.3889 77.6524 49.1252 77.6524C50.2755 77.6524 51.3173 77.5004 52.0986 77.1749L58.8701 74.3318C55.875 74.5488 52.7714 74.679 49.6678 74.7007V74.679Z" fill="url(#paint4_linear_389_6083)"/>
<path d="M52.1593 40.7494L48.6296 37.2197L45.0999 40.7494L48.6296 44.2791L52.1593 40.7494Z" fill="url(#paint5_linear_389_6083)"/>
<path d="M73.2592 17.664C72.2174 13.2365 68.2239 10.0461 63.6445 10.0461C60.8665 10.0461 58.2404 11.2181 56.3956 13.2148C56.2654 13.1714 56.1352 13.1497 55.9832 13.1497C55.0934 13.1497 54.3772 13.8659 54.3772 14.7558C54.3772 15.6456 55.0934 16.3618 55.9832 16.3618C56.8731 16.3618 57.5893 15.6456 57.5893 14.7558C57.5893 14.4953 57.5242 14.2566 57.4157 14.0396C59.0217 12.3467 61.2572 11.3483 63.6445 11.3483C67.4209 11.3483 70.7632 13.8442 71.8484 17.4036C71.5446 17.3819 71.219 17.3602 70.8935 17.3602C70.1121 17.3602 69.3525 17.4687 68.6146 17.6423C68.2891 17.2734 67.8333 17.0129 67.2907 17.0129C66.3358 17.0129 65.5544 17.7942 65.5544 18.7492C65.5544 19.7041 66.3358 20.4855 67.2907 20.4855C68.2457 20.4855 68.9402 19.791 69.0053 18.9011C69.613 18.7709 70.2424 18.6841 70.8935 18.6841C75.6248 18.6841 79.4881 22.5256 79.4881 27.2786C79.4881 31.641 76.2325 35.3089 71.8919 35.8081C71.5229 35.8515 71.2841 36.177 71.3275 36.5243C71.371 36.8498 71.6531 37.1103 71.9786 37.1103C72.0003 37.1103 72.022 37.1103 72.0437 37.1103C77.0355 36.546 80.7902 32.3138 80.7902 27.2786C80.7902 22.6341 77.5782 18.7492 73.2592 17.6857V17.664Z" fill="url(#paint6_linear_389_6083)"/>
<path d="M55.9624 6.81272C56.8956 6.81272 57.6335 6.05313 57.6335 5.14159C57.6335 4.23004 56.8739 3.47042 55.9624 3.47042C55.6585 3.47042 55.3764 3.55721 55.1376 3.68743C52.5766 1.75583 49.4513 0.692383 46.1958 0.692383C40.0104 0.692383 34.5194 4.51218 32.3056 10.2202C31.546 10.09 30.7864 10.0249 30.0051 10.0249C22.5391 10.0249 16.4622 16.1018 16.4622 23.5677C16.4622 29.0153 19.7177 33.9203 24.7311 36.0472C24.818 36.0906 24.9048 36.0906 24.9916 36.0906C25.252 36.0906 25.4908 35.9387 25.5993 35.6999C25.7295 35.3744 25.5993 34.9837 25.252 34.8535C20.716 32.9219 17.7644 28.4944 17.7644 23.5677C17.7644 16.818 23.2553 11.327 30.0051 11.327C33.5861 11.327 36.9285 12.868 39.2507 15.5375C39.1205 15.7762 39.0337 16.0584 39.0337 16.3622C39.0337 17.2955 39.7933 18.0334 40.7049 18.0334C41.6164 18.0334 42.376 17.2738 42.376 16.3622C42.376 15.4507 41.6164 14.6911 40.7049 14.6911C40.553 14.6911 40.4227 14.7128 40.2925 14.7562C38.5128 12.6944 36.1905 11.2402 33.6078 10.524C35.6696 5.40202 40.6397 2.01629 46.2175 2.01629C49.1909 2.01629 52.0123 2.97124 54.3563 4.72922C54.3129 4.85944 54.2912 4.98966 54.2912 5.14159C54.2912 6.07483 55.0508 6.81272 55.9624 6.81272Z" fill="url(#paint7_linear_389_6083)"/>
<path d="M33.9764 40.8866L38.7946 36.0685C38.9248 35.9383 38.9899 35.7864 38.9899 35.6127V31.1635C39.6844 30.9031 40.1835 30.2303 40.1835 29.4272C40.1835 28.4072 39.3589 27.5608 38.3171 27.5608C37.2753 27.5608 36.4506 28.3855 36.4506 29.4272C36.4506 30.2303 36.9498 30.9031 37.6443 31.1635V35.3523L32.9997 39.9968L28.5722 35.5693V31.1418C29.2667 30.8814 29.7659 30.2086 29.7659 29.4056C29.7659 28.3855 28.9412 27.5391 27.8994 27.5391C26.8577 27.5391 26.033 28.3638 26.033 29.4056C26.033 30.2086 26.5321 30.8814 27.2266 31.1418V35.8515C27.2266 36.0251 27.2917 36.1987 27.4219 36.3072L38.0349 46.9202V52.1073C38.0349 52.4763 38.3171 52.7584 38.686 52.7584C39.055 52.7584 39.3372 52.4763 39.3372 52.1073V46.6381C39.3372 46.4644 39.272 46.2908 39.1418 46.1823L33.8679 40.9084L33.9764 40.8866Z" fill="url(#paint8_linear_389_6083)"/>
<path d="M27.9648 39.1724C27.5958 39.1724 27.3137 39.4545 27.3137 39.8235V46.7902C27.3137 47.1592 27.5958 47.4414 27.9648 47.4414C28.3338 47.4414 28.6159 47.1592 28.6159 46.7902V39.8235C28.6159 39.4545 28.3338 39.1724 27.9648 39.1724Z" fill="url(#paint9_linear_389_6083)"/>
<path d="M33.4121 44.2295C33.0431 44.2295 32.761 44.5116 32.761 44.8806V50.3498C32.761 50.7188 33.0431 51.0009 33.4121 51.0009C33.781 51.0009 34.0631 50.7188 34.0631 50.3498V44.8806C34.0631 44.5116 33.781 44.2295 33.4121 44.2295Z" fill="url(#paint10_linear_389_6083)"/>
<path d="M32.7613 26.4543V34.9186C32.7613 35.2876 33.0434 35.5698 33.4124 35.5698C33.7813 35.5698 34.0634 35.2876 34.0634 34.9186V26.4543C34.7579 26.1939 35.2572 25.5211 35.2572 24.7181C35.2572 23.698 34.4324 22.8516 33.3906 22.8516C32.3489 22.8516 31.5242 23.6763 31.5242 24.7181C31.5242 25.5211 32.0233 26.1939 32.7178 26.4543H32.7613Z" fill="url(#paint11_linear_389_6083)"/>
<path d="M69.2663 39.1724C68.8974 39.1724 68.6152 39.4545 68.6152 39.8235V46.7902C68.6152 47.1592 68.8974 47.4414 69.2663 47.4414C69.6353 47.4414 69.9175 47.1592 69.9175 46.7902V39.8235C69.9175 39.4545 69.6353 39.1724 69.2663 39.1724Z" fill="url(#paint12_linear_389_6083)"/>
<path d="M63.8191 44.2295C63.4502 44.2295 63.168 44.5116 63.168 44.8806V50.3498C63.168 50.7188 63.4502 51.0009 63.8191 51.0009C64.1881 51.0009 64.4702 50.7188 64.4702 50.3498V44.8806C64.4702 44.5116 64.1881 44.2295 63.8191 44.2295Z" fill="url(#paint13_linear_389_6083)"/>
<path d="M71.111 29.3623C71.111 28.3423 70.2863 27.4958 69.2446 27.4958C68.2028 27.4958 67.3781 28.3206 67.3781 29.3623C67.3781 30.1654 67.8773 30.8382 68.5718 31.0986V35.5261L64.1443 39.9536L59.4997 35.3091V31.1203C60.1942 30.8599 60.6934 30.1871 60.6934 29.3841C60.6934 28.364 59.8687 27.5176 58.8269 27.5176C57.7851 27.5176 56.9604 28.3423 56.9604 29.3841C56.9604 30.1871 57.4596 30.8599 58.1541 31.1203V35.5695C58.1541 35.7431 58.2192 35.9168 58.3494 36.0253L63.1676 40.8435L57.8937 46.1174C57.7635 46.2476 57.6984 46.3995 57.6984 46.5732V52.0424C57.6984 52.4113 57.9805 52.6935 58.3494 52.6935C58.7184 52.6935 59.0006 52.4113 59.0006 52.0424V46.8553L69.6135 36.2423C69.7437 36.1121 69.8088 35.9602 69.8088 35.7866V31.0769C70.5033 30.8165 71.0025 30.1437 71.0025 29.3407L71.111 29.3623Z" fill="url(#paint14_linear_389_6083)"/>
<path d="M63.167 26.4543V34.9186C63.167 35.2876 63.4492 35.5698 63.8181 35.5698C64.1871 35.5698 64.4692 35.2876 64.4692 34.9186V26.4543C65.1637 26.1939 65.6629 25.5211 65.6629 24.7181C65.6629 23.698 64.8382 22.8516 63.7964 22.8516C62.7546 22.8516 61.9299 23.6763 61.9299 24.7181C61.9299 25.5211 62.4291 26.1939 63.1236 26.4543H63.167Z" fill="url(#paint15_linear_389_6083)"/>
<path d="M45.1098 18.4668C44.0897 18.4668 43.2433 19.2915 43.2433 20.3333C43.2433 21.1363 43.7424 21.8091 44.4369 22.0695V34.9614L39.3367 40.0617C39.2065 40.1919 39.1414 40.3655 39.1414 40.5174C39.1414 40.691 39.2065 40.843 39.3367 40.9732L44.871 46.5076V54.3208C44.871 54.6897 45.1531 54.9719 45.5221 54.9719C45.8911 54.9719 46.1732 54.6897 46.1732 54.3208V46.2471C46.1732 46.0735 46.1081 45.8999 45.9779 45.7914L40.704 40.5174L45.5221 35.6993C45.6523 35.569 45.7175 35.4171 45.7175 35.2435V22.0695C46.412 21.8091 46.9111 21.1363 46.9111 20.3333C46.9111 19.3132 46.0864 18.4668 45.0447 18.4668H45.1098Z" fill="url(#paint16_linear_389_6083)"/>
<path d="M58.0671 40.5174C58.0671 40.3438 58.002 40.1919 57.8717 40.0617L52.7715 34.9614V22.0695C53.466 21.8091 53.9652 21.1363 53.9652 20.3333C53.9652 19.3132 53.1405 18.4668 52.0987 18.4668C51.0569 18.4668 50.2322 19.2915 50.2322 20.3333C50.2322 21.1363 50.7313 21.8091 51.4258 22.0695V35.2435C51.4258 35.4171 51.491 35.5907 51.6212 35.6993L56.4394 40.5174L51.1654 45.7914C51.0352 45.9216 50.9701 46.0735 50.9701 46.2471V54.3208C50.9701 54.6897 51.2523 54.9719 51.6212 54.9719C51.9902 54.9719 52.2723 54.6897 52.2723 54.3208V46.5076L57.8066 40.9732C57.9369 40.843 58.002 40.6693 58.002 40.5174H58.0671Z" fill="url(#paint17_linear_389_6083)"/>
<path d="M96.8516 56.4703C96.7648 55.6673 96.526 54.8643 96.157 54.1698C95.7881 53.4536 95.3106 52.8242 94.7897 52.2382C94.2688 51.6522 93.6828 51.1313 93.0751 50.6538C91.8597 49.6989 90.5141 48.8958 89.1468 48.223C87.7795 47.5285 86.3471 46.9425 84.9147 46.4216C84.0249 46.0961 83.1133 45.8139 82.2018 45.5318C82.2452 45.3799 82.2885 45.2063 82.2885 45.0326C82.2885 44.056 81.5072 43.2747 80.5306 43.2747C79.5539 43.2747 78.7726 44.056 78.7726 45.0326C78.7726 46.0093 79.5539 46.7906 80.5306 46.7906C81.3119 46.7906 81.963 46.2914 82.2018 45.5969C83.0916 45.9225 83.9814 46.248 84.8713 46.5953C86.282 47.1813 87.671 47.8107 89.0166 48.5486C90.3405 49.2865 91.6428 50.0895 92.793 51.0662C93.9433 52.0211 94.9851 53.1497 95.6362 54.4736C95.9617 55.1247 96.157 55.8409 96.2004 56.5571C96.2438 57.2733 96.1571 57.9896 95.8966 58.6624C95.6579 59.3352 95.2889 59.9863 94.8548 60.5506C94.4208 61.1366 93.8999 61.6791 93.3356 62.1566C92.2288 63.1333 90.9482 63.958 89.646 64.6959C88.3221 65.4121 86.9548 66.0415 85.5441 66.6058C84.1333 67.1701 82.701 67.6476 81.2468 68.1033C79.7927 68.5374 78.3386 68.9498 76.841 69.297C73.8894 70.0133 70.8943 70.5558 67.8775 70.9899C61.844 71.858 55.767 72.2704 49.6683 72.2921C49.256 72.2921 48.8219 72.2921 48.4096 72.2921C42.745 72.2921 37.0587 71.9665 31.4375 71.2503C28.4207 70.8814 25.404 70.3822 22.4306 69.7528C20.9548 69.4272 19.4572 69.08 18.0031 68.6676C16.5273 68.277 15.0948 67.8212 13.6624 67.322C12.9462 67.0833 12.23 66.8012 11.5355 66.519C10.841 66.2369 10.1464 65.933 9.45194 65.6074C8.08463 64.978 6.76072 64.2401 5.52363 63.3937C4.28654 62.5473 3.15798 61.5489 2.28984 60.3769C1.85578 59.791 1.50854 59.1399 1.29151 58.4453C1.18299 58.0981 1.11787 57.7508 1.07446 57.3819C1.05276 57.0346 1.03105 56.6657 1.07446 56.2967C1.07446 56.2099 1.07444 56.1231 1.11784 56.0363L1.16129 55.7758C1.2047 55.6022 1.24805 55.4286 1.31317 55.2549C1.42168 54.9077 1.57361 54.5821 1.72553 54.2349C2.07279 53.5838 2.50685 52.9761 3.00603 52.4118C4.00438 51.2832 5.21981 50.3717 6.50031 49.5469C7.78081 48.7222 9.12643 48.006 10.5155 47.3766C11.3619 46.9859 12.2517 46.617 13.1198 46.2697C13.3803 46.9425 14.0097 47.3983 14.7693 47.3983C15.746 47.3983 16.5273 46.617 16.5273 45.6403C16.5273 44.6637 15.746 43.8824 14.7693 43.8824C13.7926 43.8824 13.0113 44.6637 13.0113 45.6403C13.0113 45.8357 13.0548 46.0093 13.0982 46.1829C10.7542 46.9859 8.45362 47.9626 6.30499 49.2214C5.63218 49.6121 5.00275 50.0461 4.37335 50.5019C3.76566 50.9794 3.15799 51.4785 2.63711 52.0428C2.09452 52.6071 1.61706 53.2365 1.2264 53.931C1.03107 54.2783 0.857418 54.6472 0.727197 55.0162C0.662087 55.2115 0.618709 55.4069 0.553599 55.6022L0.488425 55.9061C0.488425 55.9061 0.445042 56.1014 0.445042 56.2099C0.379932 56.6006 0.379956 57.0129 0.401659 57.4253C0.423363 57.8376 0.51019 58.2283 0.618707 58.619C0.835741 59.4003 1.20466 60.1165 1.66043 60.7893C2.57197 62.1132 3.7657 63.155 5.02449 64.0882C6.28329 64.9998 7.65055 65.7811 9.03957 66.4539C9.73408 66.8012 10.4503 67.1267 11.1448 67.4088C11.861 67.7127 12.5773 67.9948 13.2935 68.2553C16.2017 69.3187 19.1751 70.1652 22.1702 70.838C25.1652 71.5108 28.2037 72.0317 31.2639 72.444C34.3024 72.8564 37.3842 73.1168 40.4444 73.3122C43.2224 73.4641 46.0005 73.5509 48.7785 73.5509C49.0823 73.5509 49.3645 73.5509 49.6683 73.5509C52.7502 73.5292 55.8104 73.399 58.8706 73.1819C61.9308 72.9432 64.991 72.6393 68.0295 72.1619C71.0679 71.7061 74.1064 71.1201 77.0797 70.3605C80.0748 69.6226 83.0265 68.6893 85.8913 67.5173C87.3237 66.9314 88.7128 66.2585 90.0801 65.4772C91.4257 64.6959 92.7279 63.8278 93.8999 62.7643C94.4859 62.2217 95.0068 61.6357 95.4842 61.0063C95.94 60.3552 96.3524 59.639 96.5911 58.8794C96.8516 58.1198 96.9383 57.2734 96.8732 56.4703H96.8516Z" fill="url(#paint18_linear_389_6083)"/>
<defs>
<linearGradient id="paint0_linear_389_6083" x1="19.5437" y1="45.9872" x2="34.0633" y2="45.9872" gradientUnits="userSpaceOnUse">
<stop stop-color="#73CADB"/>
<stop offset="1" stop-color="#B6589E"/>
</linearGradient>
<linearGradient id="paint1_linear_389_6083" x1="63.2109" y1="45.9874" x2="77.6871" y2="45.9874" gradientUnits="userSpaceOnUse">
<stop stop-color="#73CADB"/>
<stop offset="1" stop-color="#B6589E"/>
</linearGradient>
<linearGradient id="paint2_linear_389_6083" x1="19.5437" y1="56.3615" x2="77.6871" y2="56.3615" gradientUnits="userSpaceOnUse">
<stop stop-color="#73CADB"/>
<stop offset="1" stop-color="#B6589E"/>
</linearGradient>
<linearGradient id="paint3_linear_389_6083" x1="19.5437" y1="63.9582" x2="77.6871" y2="63.9582" gradientUnits="userSpaceOnUse">
<stop stop-color="#73CADB"/>
<stop offset="1" stop-color="#B6589E"/>
</linearGradient>
<linearGradient id="paint4_linear_389_6083" x1="38.3386" y1="75.9595" x2="58.8701" y2="75.9595" gradientUnits="userSpaceOnUse">
<stop stop-color="#73CADB"/>
<stop offset="1" stop-color="#B6589E"/>
</linearGradient>
<linearGradient id="paint5_linear_389_6083" x1="45.0891" y1="40.7418" x2="52.1427" y2="40.7418" gradientUnits="userSpaceOnUse">
<stop stop-color="#73CADB"/>
<stop offset="1" stop-color="#B6589E"/>
</linearGradient>
<linearGradient id="paint6_linear_389_6083" x1="54.3555" y1="23.5674" x2="80.7685" y2="23.5674" gradientUnits="userSpaceOnUse">
<stop stop-color="#73CADB"/>
<stop offset="1" stop-color="#B6589E"/>
</linearGradient>
<linearGradient id="paint7_linear_389_6083" x1="16.4622" y1="18.4241" x2="57.6552" y2="18.4241" gradientUnits="userSpaceOnUse">
<stop stop-color="#73CADB"/>
<stop offset="1" stop-color="#B6589E"/>
</linearGradient>
<linearGradient id="paint8_linear_389_6083" x1="26.1198" y1="40.127" x2="40.2053" y2="40.127" gradientUnits="userSpaceOnUse">
<stop stop-color="#73CADB"/>
<stop offset="1" stop-color="#B6589E"/>
</linearGradient>
<linearGradient id="paint9_linear_389_6083" x1="27.3137" y1="43.3177" x2="28.6159" y2="43.3177" gradientUnits="userSpaceOnUse">
<stop stop-color="#73CADB"/>
<stop offset="1" stop-color="#B6589E"/>
</linearGradient>
<linearGradient id="paint10_linear_389_6083" x1="32.761" y1="47.6152" x2="34.0631" y2="47.6152" gradientUnits="userSpaceOnUse">
<stop stop-color="#73CADB"/>
<stop offset="1" stop-color="#B6589E"/>
</linearGradient>
<linearGradient id="paint11_linear_389_6083" x1="31.5459" y1="29.2107" x2="35.2572" y2="29.2107" gradientUnits="userSpaceOnUse">
<stop stop-color="#73CADB"/>
<stop offset="1" stop-color="#B6589E"/>
</linearGradient>
<linearGradient id="paint12_linear_389_6083" x1="68.6152" y1="43.3177" x2="69.9175" y2="43.3177" gradientUnits="userSpaceOnUse">
<stop stop-color="#73CADB"/>
<stop offset="1" stop-color="#B6589E"/>
</linearGradient>
<linearGradient id="paint13_linear_389_6083" x1="63.168" y1="47.6152" x2="64.4702" y2="47.6152" gradientUnits="userSpaceOnUse">
<stop stop-color="#73CADB"/>
<stop offset="1" stop-color="#B6589E"/>
</linearGradient>
<linearGradient id="paint14_linear_389_6083" x1="57.0256" y1="40.1272" x2="71.111" y2="40.1272" gradientUnits="userSpaceOnUse">
<stop stop-color="#73CADB"/>
<stop offset="1" stop-color="#B6589E"/>
</linearGradient>
<linearGradient id="paint15_linear_389_6083" x1="61.9733" y1="29.2107" x2="65.6846" y2="29.2107" gradientUnits="userSpaceOnUse">
<stop stop-color="#73CADB"/>
<stop offset="1" stop-color="#B6589E"/>
</linearGradient>
<linearGradient id="paint16_linear_389_6083" x1="39.1631" y1="36.7193" x2="46.9546" y2="36.7193" gradientUnits="userSpaceOnUse">
<stop stop-color="#73CADB"/>
<stop offset="1" stop-color="#B6589E"/>
</linearGradient>
<linearGradient id="paint17_linear_389_6083" x1="50.2539" y1="36.7193" x2="58.0671" y2="36.7193" gradientUnits="userSpaceOnUse">
<stop stop-color="#73CADB"/>
<stop offset="1" stop-color="#B6589E"/>
</linearGradient>
<linearGradient id="paint18_linear_389_6083" x1="0.379949" y1="58.4236" x2="96.8732" y2="58.4236" gradientUnits="userSpaceOnUse">
<stop stop-color="#73CADB"/>
<stop offset="1" stop-color="#B6589E"/>
</linearGradient>
</defs>
</svg>
