<svg width="40" height="41" viewBox="0 0 40 41" fill="none" xmlns="http://www.w3.org/2000/svg">
<path d="M20 40.3452C8.954 40.3452 0 31.3912 0 20.3452C0 9.29922 8.954 0.345215 20 0.345215C31.046 0.345215 40 9.29922 40 20.3452C40 31.3912 31.046 40.3452 20 40.3452ZM10.026 32.8572C12.8571 35.1206 16.3754 36.351 20 36.3452C23.94 36.3452 27.546 34.9212 30.334 32.5612C29.0314 31.2247 27.4741 30.163 25.7541 29.4388C24.034 28.7147 22.1863 28.3428 20.32 28.3452C18.3852 28.343 16.471 28.7429 14.6989 29.5196C12.9269 30.2964 11.3356 31.4329 10.026 32.8572ZM7.232 29.9852C8.91291 28.2014 10.9413 26.7806 13.1923 25.8106C15.4432 24.8407 17.869 24.3419 20.32 24.3452C22.6833 24.3421 25.0239 24.8059 27.2075 25.71C29.391 26.614 31.3745 27.9405 33.044 29.6132C34.7562 27.2035 35.7673 24.3665 35.9651 21.417C36.163 18.4676 35.5399 15.521 34.165 12.9041C32.79 10.2873 30.717 8.10246 28.1759 6.5921C25.6348 5.08175 22.725 4.30489 19.7692 4.34772C16.8134 4.39055 13.9273 5.25138 11.431 6.83473C8.93476 8.41807 6.92592 10.662 5.62738 13.3176C4.32885 15.9732 3.79139 18.9366 4.07463 21.8791C4.35787 24.8216 5.45075 27.6281 7.232 29.9872V29.9852ZM20 22.3452C17.8783 22.3452 15.8434 21.5024 14.3431 20.0021C12.8429 18.5018 12 16.4669 12 14.3452C12 12.2235 12.8429 10.1887 14.3431 8.68836C15.8434 7.18807 17.8783 6.34521 20 6.34521C22.1217 6.34521 24.1566 7.18807 25.6569 8.68836C27.1571 10.1887 28 12.2235 28 14.3452C28 16.4669 27.1571 18.5018 25.6569 20.0021C24.1566 21.5024 22.1217 22.3452 20 22.3452ZM20 18.3452C21.0609 18.3452 22.0783 17.9238 22.8284 17.1736C23.5786 16.4235 24 15.4061 24 14.3452C24 13.2843 23.5786 12.2669 22.8284 11.5168C22.0783 10.7666 21.0609 10.3452 20 10.3452C18.9391 10.3452 17.9217 10.7666 17.1716 11.5168C16.4214 12.2669 16 13.2843 16 14.3452C16 15.4061 16.4214 16.4235 17.1716 17.1736C17.9217 17.9238 18.9391 18.3452 20 18.3452Z" fill="#4BA947"/>
</svg>
