<svg width="18" height="19" viewBox="0 0 18 19" fill="none" xmlns="http://www.w3.org/2000/svg">
<path d="M10 1.34521C10 0.79293 9.55229 0.345215 9 0.345215C8.44771 0.345215 8 0.79293 8 1.34521V10.9312L5.70685 8.63806C5.31638 8.2476 4.68331 8.2476 4.29285 8.63806C3.90238 9.02853 3.90238 9.6616 4.29285 10.0521L8.24274 14.002C8.63327 14.3925 9.26643 14.3925 9.65696 14.002L13.6068 10.0521C13.9973 9.6616 13.9973 9.02853 13.6068 8.63806C13.2164 8.2476 12.5833 8.2476 12.1928 8.63806L10 10.8309V1.34521Z" fill="#4BA947"/>
<path d="M0 10.3452C0 9.79293 0.447715 9.34521 1 9.34521C1.55228 9.34521 2 9.79293 2 10.3452V16.3452H16V10.3452C16 9.79293 16.4477 9.34521 17 9.34521C17.5523 9.34521 18 9.79293 18 10.3452V17.3452C18 17.8975 17.5523 18.3452 17 18.3452H1C0.447715 18.3452 0 17.8975 0 17.3452V10.3452Z" fill="#4BA947"/>
</svg>
