<svg width="44" height="39" viewBox="0 0 44 39" fill="none" xmlns="http://www.w3.org/2000/svg">
<path d="M2.0196e-06 25.3452C-0.00122957 23.1362 0.560844 20.9632 1.6331 19.0318C2.70537 17.1004 4.2524 15.4743 6.128 14.3072C6.62303 10.4474 8.5076 6.90024 11.429 4.32955C14.3505 1.75885 18.1086 0.34082 22 0.34082C25.8914 0.34082 29.6495 1.75885 32.571 4.32955C35.4924 6.90024 37.377 10.4474 37.872 14.3072C40.1985 15.7546 42.0081 17.9 43.0426 20.4372C44.0771 22.9743 44.2835 25.7735 43.6323 28.4349C42.9811 31.0964 41.5057 33.484 39.4167 35.257C37.3277 37.0299 34.7319 38.0975 32 38.3072L12 38.3452C5.288 37.7972 2.0196e-06 32.1892 2.0196e-06 25.3452ZM31.696 34.3192C33.5877 34.1738 35.385 33.4343 36.8312 32.2063C38.2775 30.9783 39.2986 29.3247 39.7489 27.4817C40.1992 25.6387 40.0555 23.7005 39.3384 21.944C38.6213 20.1875 37.3675 18.7025 35.756 17.7012L34.142 16.6952L33.902 14.8112C33.5282 11.9186 32.1138 9.26111 29.9232 7.33541C27.7326 5.40971 24.9157 4.34761 21.999 4.34761C19.0823 4.34761 16.2654 5.40971 14.0748 7.33541C11.8843 9.26111 10.4699 11.9186 10.096 14.8112L9.856 16.6952L8.246 17.7012C6.63459 18.7024 5.38077 20.1872 4.66359 21.9435C3.94642 23.6999 3.80258 25.6379 4.25262 27.4809C4.70265 29.3238 5.72355 30.9774 7.1695 32.2055C8.61545 33.4336 10.4125 34.1734 12.304 34.3192L12.65 34.3452H31.35L31.696 34.3192ZM24 20.3452H30L22 30.3452L14 20.3452H20V12.3452H24V20.3452Z" fill="#4BA947"/>
</svg>
