<svg width="10" height="11" viewBox="0 0 10 11" fill="none" xmlns="http://www.w3.org/2000/svg">
<path d="M5 10.25C2.2385 10.25 0 8.0115 0 5.25C0 2.4885 2.2385 0.25 5 0.25C7.7615 0.25 10 2.4885 10 5.25C10 8.0115 7.7615 10.25 5 10.25ZM5 9.25C6.06087 9.25 7.07828 8.82857 7.82843 8.07843C8.57857 7.32828 9 6.31087 9 5.25C9 4.18913 8.57857 3.17172 7.82843 2.42157C7.07828 1.67143 6.06087 1.25 5 1.25C3.93913 1.25 2.92172 1.67143 2.17157 2.42157C1.42143 3.17172 1 4.18913 1 5.25C1 6.31087 1.42143 7.32828 2.17157 8.07843C2.92172 8.82857 3.93913 9.25 5 9.25V9.25ZM4.5 6.75H5.5V7.75H4.5V6.75ZM5.5 5.9275V6.25H4.5V5.5C4.5 5.36739 4.55268 5.24021 4.64645 5.14645C4.74021 5.05268 4.86739 5 5 5C5.14204 4.99999 5.28116 4.95965 5.40116 4.88366C5.52117 4.80768 5.61713 4.69918 5.67789 4.57079C5.73864 4.4424 5.76168 4.2994 5.74434 4.15842C5.727 4.01745 5.66998 3.88429 5.57992 3.77446C5.48986 3.66462 5.37046 3.58261 5.23561 3.53798C5.10077 3.49335 4.95602 3.48793 4.81821 3.52235C4.68041 3.55677 4.55521 3.62962 4.45718 3.73241C4.35916 3.8352 4.29234 3.96372 4.2645 4.103L3.2835 3.9065C3.34432 3.60254 3.48475 3.32019 3.69046 3.08829C3.89617 2.8564 4.15976 2.68329 4.45429 2.58666C4.74883 2.49003 5.06374 2.47334 5.36684 2.53831C5.66994 2.60327 5.95035 2.74756 6.17941 2.95641C6.40847 3.16527 6.57796 3.4312 6.67056 3.72703C6.76315 4.02286 6.77553 4.33797 6.70643 4.64015C6.63733 4.94234 6.48923 5.22075 6.27726 5.44693C6.06529 5.67312 5.79707 5.83896 5.5 5.9275V5.9275Z" fill="#004A66"/>
</svg>
