<svg width="28" height="32" viewBox="0 0 28 32" fill="none" xmlns="http://www.w3.org/2000/svg">
<path fill-rule="evenodd" clip-rule="evenodd" d="M13.6685 31.8016C13.8577 31.9692 14.1423 31.9692 14.3315 31.8016L23.546 23.6411C25.434 21.7531 26.7197 19.3476 27.2406 16.7289C27.7615 14.1101 27.4942 11.3957 26.4724 8.92895C25.4506 6.46216 23.7202 4.35376 21.5002 2.87036C19.2801 1.38697 16.67 0.595215 14 0.595215C11.33 0.595215 8.71989 1.38697 6.49983 2.87036C4.27977 4.35376 2.54944 6.46216 1.52765 8.92895C0.50586 11.3957 0.238506 14.1101 0.759393 16.7289C1.28028 19.3476 2.56601 21.7531 4.45401 23.6411L13.6685 31.8016ZM14 18.5952C16.4853 18.5952 18.5 16.5805 18.5 14.0952C18.5 11.6099 16.4853 9.59521 14 9.59521C11.5147 9.59521 9.5 11.6099 9.5 14.0952C9.5 16.5805 11.5147 18.5952 14 18.5952Z" fill="#004A66"/>
</svg>
