<svg width="47" height="78" viewBox="0 0 47 78" fill="none" xmlns="http://www.w3.org/2000/svg">
<path d="M46.3888 60.6895C46.3888 65.4267 42.5747 69.2756 37.8724 69.2756H9.37998C4.67768 69.2756 0.846191 65.4441 0.846191 60.6895V25.1959C0.846191 20.4588 4.66027 16.6099 9.37998 16.6099H37.8724C42.5747 16.6099 46.3888 20.4588 46.3888 25.1959V60.6895Z" fill="#02A2B3"/>
<path d="M19.3238 62.4137C20.2469 62.4137 21.0654 62.0828 21.762 61.4035C22.4587 60.7069 22.807 59.8709 22.807 58.8608V55.308C22.807 54.3501 22.4587 53.5316 21.762 52.8349C21.0828 52.1209 20.2643 51.7551 19.3238 51.7551H10.6159C10.0934 51.7551 9.6754 51.9467 9.36191 52.3124C9.04842 52.6608 8.87427 53.0613 8.87427 53.5315V69.4149H12.34V62.3962H15.8232L17.5822 65.9665L19.2716 69.4323H22.7373L21.048 65.9665L19.3064 62.3962L19.3238 62.4137ZM12.34 55.308H19.3238V58.8782H12.34V55.308Z" fill="white"/>
<path d="M27.4233 65.9843V62.414H32.6655C33.1183 62.414 33.5363 62.2573 33.8672 61.9264C34.2329 61.578 34.4071 61.16 34.4071 60.655V58.896H27.4407V55.3257H37.8902V51.7903H25.6991C25.1766 51.7903 24.7586 51.9819 24.4452 52.3476C24.1143 52.6959 23.9575 53.0965 23.9575 53.5667V67.7781C23.9575 68.3006 24.1317 68.7186 24.4452 69.0495C24.6367 69.241 24.8631 69.3804 25.1244 69.45H37.8902V66.0017H27.4407L27.4233 65.9843Z" fill="white"/>
<path d="M35.5212 38.9032L38.3252 33.7307L35.974 34.5492L29.9656 23.8036C26.9004 18.335 22.0935 17.6906 18.6104 21.9053L21.3447 22.0098L21.484 24.7963C24.0964 22.9851 25.9598 24.6222 27.7363 27.8093L32.247 35.8554L30.0526 36.6217L35.5386 38.9206L35.5212 38.9032Z" fill="white"/>
<path d="M14.7444 44.8065L17.6877 50.0661L18.1753 47.4886H30.14C36.253 47.506 39.1615 43.4133 37.3677 38.0317L35.9396 40.4874L33.4839 39.4076C33.7277 42.2115 31.4637 43.3784 27.9108 43.3784H18.9416L19.3945 40.9576L14.7444 44.8239V44.8065Z" fill="white"/>
<path d="M20.1426 23.124L14.5347 23.2111L16.3634 24.9179L10.4942 35.6983C7.49868 41.2017 9.30993 45.8344 14.465 46.8271L13.2111 44.3366L15.4055 42.7692C12.8976 41.6371 13.124 38.8854 14.8656 35.6983L19.2719 27.6173L20.9612 29.2022L20.1775 23.124H20.1426Z" fill="white"/>
<path d="M10.3029 77.6534H8.63095L6.85449 71.6274H8.3871L9.48431 76.1033H9.50174L10.5989 71.6274H12.1315L10.3029 77.6534Z" fill="#02A2B3"/>
<path d="M13.4203 71.6274H11.9573V77.6534H13.4203V71.6274Z" fill="#02A2B3"/>
<path d="M13.8384 71.6274H18.3143V72.8814H15.3013V73.9438H18.053V75.1455H15.3013V76.2949H18.3839V77.6534H13.8384V71.6274Z" fill="#02A2B3"/>
<path d="M23.0859 72.9685H21.4139V77.6534H19.951V72.9685H18.2791V71.6274H23.0859V72.9685Z" fill="#02A2B3"/>
<path d="M23.1206 71.6274H24.6184L26.569 75.337H26.5864V71.6274H27.9622V77.6534H26.4645L24.5139 73.8915H24.4965V77.6534H23.1206V71.6274Z" fill="#02A2B3"/>
<path d="M29.8959 71.6274H31.3762L33.4661 77.6534H31.9335L31.5852 76.5736H29.6347L29.2863 77.6534H27.7886L29.8959 71.6274ZM29.9829 75.4067H31.2543L30.6273 73.2994L30.0004 75.4067H29.9829Z" fill="#02A2B3"/>
<path d="M33.3271 71.6274H35.4867L36.4446 75.6505H36.462L37.4373 71.6274H39.5795V77.6534H38.2036V73.073H38.1861L37.0193 77.6534H35.9047L34.7204 73.073H34.703V77.6534H33.3271V71.6274Z" fill="#02A2B3"/>
<path d="M0.724121 0.691895H3.59774C4.59044 0.691895 5.56574 1.17953 5.56574 2.39865C5.56574 3.06045 5.26965 3.67001 4.67751 3.91384C5.26965 4.08799 5.44382 4.80205 5.49606 5.37678C5.49606 5.63802 5.53092 6.52623 5.73991 6.73522H4.29436C4.17245 6.52623 4.13761 5.93408 4.12019 5.77734C4.08536 5.16778 3.98086 4.54081 3.30164 4.54081H2.18705V6.73522H0.724121V0.691895ZM2.18705 3.3217H3.42357C3.85896 3.3217 4.10281 3.06046 4.10281 2.60764C4.10281 2.15483 3.77187 1.96325 3.35389 1.96325H2.18705V3.3217Z" fill="#02A2B3"/>
<path d="M5.82739 0.691895H10.3207V1.96325H7.29032V3.00821H10.0594V4.22732H7.29032V5.39419H10.3904V6.73522H5.82739V0.691895Z" fill="#02A2B3"/>
<path d="M10.616 0.691895H12.1311L14.0817 4.4189H14.0991V0.691895H15.4924V6.73522H13.9772L12.0267 2.97337H12.0092V6.73522H10.616V0.691895Z" fill="#02A2B3"/>
<path d="M15.8931 0.691895H20.3864V1.96325H17.3734V3.00821H20.1251V4.22732H17.3734V5.39419H20.4735V6.73522H15.8931V0.691895Z" fill="#02A2B3"/>
<path d="M26.2557 6.73522H24.7754L24.0091 2.57282H23.9916L23.2253 6.73522H21.7276L20.2124 0.691895H21.6753L22.4764 5.11554H22.4939L23.3124 0.691895H24.6883L25.5242 5.11554H25.5417L26.3428 0.691895H27.8057L26.2557 6.73522Z" fill="#02A2B3"/>
<path d="M28.9552 0.691895H30.453L32.5603 6.73522H31.0277L30.6794 5.65543H28.7114L28.3631 6.73522H26.8479L28.9552 0.691895ZM29.0423 4.48856H30.3136L29.6867 2.36382L29.0423 4.48856Z" fill="#02A2B3"/>
<path d="M32.4038 0.691895H35.0336C36.0089 0.691895 37.0713 0.953138 37.0713 2.20708C37.0713 2.74698 36.7752 3.18237 36.3224 3.42619C36.9145 3.61777 37.2977 4.17508 37.2977 4.8543C37.2977 6.29982 36.305 6.73522 35.1033 6.73522H32.4038V0.691895ZM33.8667 3.07788H34.9988C35.2426 3.07788 35.5909 2.93855 35.5909 2.50315C35.5909 2.06775 35.2948 1.911 34.9988 1.911H33.8667V3.07788ZM33.8667 5.48127H35.051C35.5212 5.48127 35.8347 5.30711 35.8347 4.80205C35.8347 4.26216 35.4864 4.08799 35.051 4.08799H33.8667V5.48127Z" fill="#02A2B3"/>
<path d="M37.5071 0.691895H38.97V5.39419H41.5998V6.73522H37.5071V0.691895Z" fill="#02A2B3"/>
<path d="M41.7388 0.691895H46.2147V1.96325H43.2017V3.00821H45.9708V4.22732H43.2017V5.39419H46.3017V6.73522H41.7388V0.691895Z" fill="#02A2B3"/>
<path d="M8.52637 8.28491H13.0197V9.55627H9.98935V10.6186H12.7585V11.8378H9.98935V12.9872H13.0894V14.3456H8.52637V8.28491Z" fill="#02A2B3"/>
<path d="M13.3162 8.28491H14.8314L16.782 12.0119H16.7993V8.28491H18.1926V14.3456H16.6775L14.7269 10.5664H14.7095V14.3456H13.3162V8.28491Z" fill="#02A2B3"/>
<path d="M18.5928 8.28491H23.0861V9.55627H20.0558V10.6186H22.8249V11.8378H20.0558V12.9872H23.1732V14.3456H18.5928V8.28491Z" fill="#02A2B3"/>
<path d="M23.417 8.30322H26.2906C27.2833 8.30322 28.2586 8.79086 28.2586 10.01C28.2586 10.6544 27.9625 11.2813 27.3704 11.5252C27.9625 11.6993 28.1367 12.4134 28.1889 12.9881C28.1889 13.2493 28.2238 14.1375 28.4328 14.3465H26.9699C26.8479 14.1375 26.8131 13.5454 26.8131 13.3887C26.7782 12.7791 26.6737 12.1521 25.9945 12.1521H24.8799V14.3465H23.417V8.30322ZM24.8799 10.933H26.1164C26.5518 10.933 26.7957 10.6718 26.7957 10.219C26.7957 9.76616 26.4648 9.57458 26.0642 9.57458H24.8974V10.933H24.8799Z" fill="#02A2B3"/>
<path d="M33.7273 14.3457H32.7868L32.6997 13.6839C32.3166 14.2761 31.6548 14.4676 31.1323 14.4676C29.4255 14.4676 28.3284 13.0744 28.3284 11.3154C28.3284 9.55635 29.4255 8.16309 31.1323 8.16309C32.2992 8.16309 33.5531 8.82489 33.675 10.3401H32.2121C32.1598 9.8176 31.6896 9.5041 31.0975 9.5041C30.157 9.5041 29.7913 10.4097 29.7913 11.2979C29.7913 12.1862 30.157 13.0918 31.0975 13.0918C31.829 13.0918 32.3166 12.726 32.3863 12.1862H31.3587V11.0193H33.7273V14.3283V14.3457Z" fill="#02A2B3"/>
<path d="M36.9324 12.0816V14.3456H35.4694V12.0816L33.4143 8.28491H35.0688L36.2009 10.7405L37.3155 8.28491H38.9874L36.9324 12.0816Z" fill="#02A2B3"/>
<path d="M31.0625 35.8196C31.0625 40.0342 27.6664 43.4477 23.4866 43.4477C19.3068 43.4477 15.9106 40.0342 15.9106 35.8196C15.9106 31.6049 19.3068 28.1914 23.4866 28.1914C27.6664 28.1914 31.0625 31.6049 31.0625 35.8196Z" fill="#ED1C24"/>
<path d="M28.6247 35.8197C28.6247 38.676 26.3259 40.9923 23.4871 40.9923C20.6483 40.9923 18.3494 38.676 18.3494 35.8197C18.3494 32.9635 20.6483 30.6472 23.4871 30.6472C26.3259 30.6472 28.6247 32.9635 28.6247 35.8197Z" fill="white"/>
<path d="M23.4699 32.0054L24.3755 34.7397H27.2143L24.9502 36.429L25.7688 39.1807L23.5569 37.4914L21.1535 39.1807L22.0592 36.3942L19.708 34.7397H22.5991L23.4699 32.0054Z" fill="#ED1C24"/>
</svg>
