<svg width="18" height="19" viewBox="0 0 18 19" fill="none" xmlns="http://www.w3.org/2000/svg">
<path d="M7 0.345215V2.34521H2V16.3452H16V11.3452H18V17.3452C18 17.6104 17.8946 17.8648 17.7071 18.0523C17.5196 18.2399 17.2652 18.3452 17 18.3452H1C0.734784 18.3452 0.48043 18.2399 0.292893 18.0523C0.105357 17.8648 0 17.6104 0 17.3452V1.34521C0 1.08 0.105357 0.825644 0.292893 0.638108C0.48043 0.450572 0.734784 0.345215 1 0.345215H7ZM14.586 2.34521H10V0.345215H18V8.34521H16V3.75921L9 10.7592L7.586 9.34521L14.586 2.34521Z" fill="#4BA947"/>
</svg>
