<svg width="30" height="31" viewBox="0 0 30 31" fill="none" xmlns="http://www.w3.org/2000/svg">
<path d="M7.5 12.3452C6.67157 12.3452 6 13.0168 6 13.8452C6 14.6736 6.67157 15.3452 7.5 15.3452H9C9.82843 15.3452 10.5 14.6736 10.5 13.8452C10.5 13.0168 9.82843 12.3452 9 12.3452H7.5Z" fill="#004A66"/>
<path d="M7.5 18.3452C6.67157 18.3452 6 19.0168 6 19.8452C6 20.6736 6.67157 21.3452 7.5 21.3452H9C9.82843 21.3452 10.5 20.6736 10.5 19.8452C10.5 19.0168 9.82843 18.3452 9 18.3452H7.5Z" fill="#004A66"/>
<path fill-rule="evenodd" clip-rule="evenodd" d="M22.5 3.34521H27C28.6569 3.34521 30 4.68836 30 6.34521V27.3452C30 29.0021 28.6569 30.3452 27 30.3452H3C1.34315 30.3452 0 29.0021 0 27.3452V6.34521C0 4.68836 1.34315 3.34521 3 3.34521H7.5V1.84521C7.5 1.01679 8.17157 0.345215 9 0.345215C9.82843 0.345215 10.5 1.01679 10.5 1.84521V3.34521H19.5V1.84521C19.5 1.01679 20.1716 0.345215 21 0.345215C21.8284 0.345215 22.5 1.01679 22.5 1.84521V3.34521ZM3 10.0952C3 9.681 3.33579 9.34521 3.75 9.34521H26.25C26.6642 9.34521 27 9.681 27 10.0952V26.5952C27 27.0094 26.6642 27.3452 26.25 27.3452H3.75C3.33579 27.3452 3 27.0094 3 26.5952V10.0952Z" fill="#004A66"/>
<path d="M14.25 12.3452C13.4216 12.3452 12.75 13.0168 12.75 13.8452C12.75 14.6736 13.4216 15.3452 14.25 15.3452H15.75C16.5784 15.3452 17.25 14.6736 17.25 13.8452C17.25 13.0168 16.5784 12.3452 15.75 12.3452H14.25Z" fill="#004A66"/>
<path d="M14.25 18.3452C13.4216 18.3452 12.75 19.0168 12.75 19.8452C12.75 20.6736 13.4216 21.3452 14.25 21.3452H15.75C16.5784 21.3452 17.25 20.6736 17.25 19.8452C17.25 19.0168 16.5784 18.3452 15.75 18.3452H14.25Z" fill="#004A66"/>
<path d="M21 12.3452C20.1716 12.3452 19.5 13.0168 19.5 13.8452C19.5 14.6736 20.1716 15.3452 21 15.3452H22.5C23.3284 15.3452 24 14.6736 24 13.8452C24 13.0168 23.3284 12.3452 22.5 12.3452H21Z" fill="#004A66"/>
</svg>
