<svg width="136" height="66" viewBox="0 0 136 66" fill="none" xmlns="http://www.w3.org/2000/svg">
<path d="M135.707 7.72969C132.589 5.80403 128.857 3.86133 122.296 3.86133C115.002 3.86133 111.202 6.26414 107.862 8.37725C104.726 10.3711 102 12.0752 96.3078 12.0752C90.6161 12.0752 87.8895 10.354 84.7539 8.37725C81.4138 6.26414 77.6136 3.86133 70.3029 3.86133C62.9923 3.86133 59.2091 6.26414 55.869 8.37725C52.7335 10.3711 50.0069 12.0752 44.3151 12.0752C38.6234 12.0752 35.8968 10.354 32.7612 8.37725C29.4211 6.26414 25.6209 3.86133 18.3273 3.86133C11.0337 3.86133 7.23346 6.26414 3.89339 8.37725C2.83683 9.04186 1.83141 9.67238 0.757812 10.2177L2.59824 12.0922C3.02427 11.8366 3.46737 11.564 3.91044 11.2913C7.25052 9.17818 11.0507 6.77537 18.3443 6.77537C25.638 6.77537 29.4382 9.17818 32.7782 11.2913C35.9138 13.2851 38.6234 14.9892 44.3322 14.9892C50.041 14.9892 52.7335 13.2681 55.8861 11.2913C59.2262 9.17818 63.0264 6.77537 70.32 6.77537C77.6136 6.77537 81.4138 9.17818 84.7709 11.2913C87.9065 13.2851 90.6331 14.9892 96.3248 14.9892C102.017 14.9892 104.726 13.2681 107.879 11.2913C111.219 9.17818 115.019 6.77537 122.313 6.77537C127.561 6.77537 130.987 8.01938 133.747 9.50196C134.412 8.92256 135.077 8.32613 135.724 7.72969" fill="url(#paint0_linear_389_6039)"/>
<path d="M135.707 39.3415C132.589 37.4158 128.857 35.4731 122.296 35.4731C115.002 35.4731 111.202 37.8759 107.862 39.9891C104.726 41.9829 102 43.687 96.3078 43.687C90.6161 43.687 87.8895 41.9658 84.7539 39.9891C81.4138 37.8759 77.6136 35.4731 70.3029 35.4731C62.9923 35.4731 59.2091 37.8759 55.869 39.9891C52.7335 41.9829 50.0069 43.687 44.3151 43.687C38.6234 43.687 35.8968 41.9658 32.7612 39.9891C29.4211 37.8759 25.6209 35.4731 18.3273 35.4731C11.0337 35.4731 7.23346 37.8759 3.89339 39.9891C2.83683 40.6537 1.83141 41.2842 0.757812 41.8295L2.59824 43.704C3.02427 43.4484 3.46737 43.1758 3.91044 42.9031C7.25052 40.79 11.0507 38.3872 18.3443 38.3872C25.638 38.3872 29.4382 40.79 32.7782 42.9031C35.9138 44.8969 38.6234 46.6181 44.3322 46.6181C50.041 46.6181 52.7335 44.8969 55.8861 42.9031C59.2262 40.79 63.0264 38.3872 70.32 38.3872C77.6136 38.3872 81.4138 40.79 84.7709 42.9031C87.9065 44.8969 90.6331 46.6181 96.3248 46.6181C102.017 46.6181 104.726 44.8969 107.879 42.9031C111.219 40.79 115.019 38.3872 122.313 38.3872C127.561 38.3872 130.987 39.6312 133.747 41.1138C134.412 40.5344 135.077 39.9379 135.724 39.3415" fill="url(#paint1_linear_389_6039)"/>
<path d="M135.707 14.052C132.589 12.1263 128.857 10.1836 122.296 10.1836C115.002 10.1836 111.202 12.5864 107.862 14.6995C104.726 16.6933 102 18.3975 96.3078 18.3975C90.6161 18.3975 87.8895 16.6763 84.7539 14.6995C81.4138 12.5864 77.6136 10.1836 70.3029 10.1836C62.9923 10.1836 59.2091 12.5864 55.869 14.6995C52.7335 16.6933 50.0069 18.3975 44.3151 18.3975C38.6234 18.3975 35.8968 16.6763 32.7612 14.6995C29.4211 12.5864 25.6209 10.1836 18.3273 10.1836C11.0337 10.1836 7.23346 12.5864 3.89339 14.6995C2.83683 15.3641 1.83141 15.9946 0.757812 16.54L2.59824 18.4145C3.02427 18.1589 3.46737 17.8862 3.91044 17.6136C7.25052 15.5004 11.0507 13.0976 18.3443 13.0976C25.638 13.0976 29.4382 15.5004 32.7782 17.6136C35.9138 19.6074 38.6234 21.3285 44.3322 21.3285C50.041 21.3285 52.7335 19.6074 55.8861 17.6136C59.2262 15.5004 63.0264 13.0976 70.32 13.0976C77.6136 13.0976 81.4138 15.5004 84.7709 17.6136C87.9065 19.6074 90.6331 21.3285 96.3248 21.3285C102.017 21.3285 104.726 19.6074 107.879 17.6136C111.219 15.5004 115.019 13.0976 122.313 13.0976C127.561 13.0976 130.987 14.3417 133.747 15.8242C134.412 15.2448 135.077 14.6484 135.724 14.052" fill="url(#paint2_linear_389_6039)"/>
<path d="M135.707 45.6467C132.589 43.721 128.857 41.7783 122.296 41.7783C115.002 41.7783 111.202 44.1811 107.862 46.2942C104.726 48.2881 102 49.9922 96.3078 49.9922C90.6161 49.9922 87.8895 48.271 84.7539 46.2942C81.4138 44.1811 77.6136 41.7783 70.3029 41.7783C62.9923 41.7783 59.2091 44.1811 55.869 46.2942C52.7335 48.2881 50.0069 49.9922 44.3151 49.9922C38.6234 49.9922 35.8968 48.271 32.7612 46.2942C29.4211 44.1811 25.6209 41.7783 18.3273 41.7783C11.0337 41.7783 7.23346 44.1811 3.89339 46.2942C2.83683 46.9588 1.83141 47.5894 0.757812 48.1347L2.59824 50.0092C3.02427 49.7536 3.46737 49.4809 3.91044 49.2083C7.25052 47.0952 11.0507 44.6924 18.3443 44.6924C25.638 44.6924 29.4382 47.0952 32.7782 49.2083C35.9138 51.2021 38.6234 52.9233 44.3322 52.9233C50.041 52.9233 52.7335 51.2021 55.8861 49.2083C59.2262 47.0952 63.0264 44.6924 70.32 44.6924C77.6136 44.6924 81.4138 47.0952 84.7709 49.2083C87.9065 51.2021 90.6331 52.9233 96.3248 52.9233C102.017 52.9233 104.726 51.2021 107.879 49.2083C111.219 47.0952 115.019 44.6924 122.313 44.6924C127.561 44.6924 130.987 45.9364 133.747 47.419C134.412 46.8396 135.077 46.2431 135.724 45.6467" fill="url(#paint3_linear_389_6039)"/>
<path d="M135.707 20.3742C132.589 18.4486 128.857 16.5059 122.296 16.5059C115.002 16.5059 111.202 18.9087 107.862 21.0218C104.726 23.0156 102 24.7197 96.3078 24.7197C90.6161 24.7197 87.8895 22.9986 84.7539 21.0218C81.4138 18.9087 77.6136 16.5059 70.3029 16.5059C62.9923 16.5059 59.2091 18.9087 55.869 21.0218C52.7335 23.0156 50.0069 24.7197 44.3151 24.7197C38.6234 24.7197 35.8968 22.9986 32.7612 21.0218C29.4211 18.9087 25.6209 16.5059 18.3273 16.5059C11.0337 16.5059 7.23346 18.9087 3.89339 21.0218C2.83683 21.6864 1.83141 22.3169 0.757812 22.8622L2.59824 24.7368C3.02427 24.4811 3.46737 24.2085 3.91044 23.9358C7.25052 21.8227 11.0507 19.4199 18.3443 19.4199C25.638 19.4199 29.4382 21.8227 32.7782 23.9358C35.9138 25.9296 38.6234 27.6508 44.3322 27.6508C50.041 27.6508 52.7335 25.9296 55.8861 23.9358C59.2262 21.8227 63.0264 19.4199 70.32 19.4199C77.6136 19.4199 81.4138 21.8227 84.7709 23.9358C87.9065 25.9296 90.6331 27.6508 96.3248 27.6508C102.017 27.6508 104.726 25.9296 107.879 23.9358C111.219 21.8227 115.019 19.4199 122.313 19.4199C127.561 19.4199 130.987 20.6639 133.747 22.1465C134.412 21.5671 135.077 20.9707 135.724 20.3742" fill="url(#paint4_linear_389_6039)"/>
<path d="M135.707 51.9689C132.589 50.0433 128.857 48.1006 122.296 48.1006C115.002 48.1006 111.202 50.5034 107.862 52.6165C104.726 54.6103 102 56.3144 96.3078 56.3144C90.6161 56.3144 87.8895 54.5933 84.7539 52.6165C81.4138 50.5034 77.6136 48.1006 70.3029 48.1006C62.9923 48.1006 59.2091 50.5034 55.869 52.6165C52.7335 54.6103 50.0069 56.3144 44.3151 56.3144C38.6234 56.3144 35.8968 54.5933 32.7612 52.6165C29.4211 50.5034 25.6209 48.1006 18.3273 48.1006C11.0337 48.1006 7.23346 50.5034 3.89339 52.6165C2.83683 53.2811 1.83141 53.9116 0.757812 54.457L2.59824 56.3315C3.02427 56.0759 3.46737 55.8032 3.91044 55.5306C7.25052 53.4175 11.0507 51.0146 18.3443 51.0146C25.638 51.0146 29.4382 53.4175 32.7782 55.5306C35.9138 57.5244 38.6234 59.2455 44.3322 59.2455C50.041 59.2455 52.7335 57.5244 55.8861 55.5306C59.2262 53.4175 63.0264 51.0146 70.32 51.0146C77.6136 51.0146 81.4138 53.4175 84.7709 55.5306C87.9065 57.5244 90.6331 59.2455 96.3248 59.2455C102.017 59.2455 104.726 57.5244 107.879 55.5306C111.219 53.4175 115.019 51.0146 122.313 51.0146C127.561 51.0146 130.987 52.2586 133.747 53.7412C134.412 53.1618 135.077 52.5654 135.724 51.9689" fill="url(#paint5_linear_389_6039)"/>
<path d="M135.707 26.6975C132.589 24.7718 128.857 22.8291 122.296 22.8291C115.002 22.8291 111.202 25.2319 107.862 27.345C104.726 29.3388 102 31.043 96.3078 31.043C90.6161 31.043 87.8895 29.3218 84.7539 27.345C81.4138 25.2319 77.6136 22.8291 70.3029 22.8291C62.9923 22.8291 59.2091 25.2319 55.869 27.345C52.7335 29.3388 50.0069 31.043 44.3151 31.043C38.6234 31.043 35.8968 29.3218 32.7612 27.345C29.4211 25.2319 25.6209 22.8291 18.3273 22.8291C11.0337 22.8291 7.23346 25.2319 3.89339 27.345C2.83683 28.0096 1.83141 28.6402 0.757812 29.1855L2.59824 31.06C3.02427 30.8044 3.46737 30.5317 3.91044 30.2591C7.25052 28.146 11.0507 25.7432 18.3443 25.7432C25.638 25.7432 29.4382 28.146 32.7782 30.2591C35.9138 32.2529 38.6234 33.974 44.3322 33.974C50.041 33.974 52.7335 32.2529 55.8861 30.2591C59.2262 28.146 63.0264 25.7432 70.32 25.7432C77.6136 25.7432 81.4138 28.146 84.7709 30.2591C87.9065 32.2529 90.6331 33.974 96.3248 33.974C102.017 33.974 104.726 32.2529 107.879 30.2591C111.219 28.146 115.019 25.7432 122.313 25.7432C127.561 25.7432 130.987 26.9872 133.747 28.4697C134.412 27.8903 135.077 27.2939 135.724 26.6975" fill="url(#paint6_linear_389_6039)"/>
<path d="M135.707 58.2915C132.589 56.3658 128.857 54.4231 122.296 54.4231C115.002 54.4231 111.202 56.8259 107.862 58.939C104.726 60.9328 102 62.654 96.3078 62.654C90.6161 62.654 87.8895 60.9328 84.7539 58.939C81.4138 56.8259 77.6136 54.4231 70.3029 54.4231C62.9923 54.4231 59.2091 56.8259 55.869 58.939C52.7335 60.9328 50.0069 62.654 44.3151 62.654C38.6234 62.654 35.8968 60.9328 32.7612 58.939C29.4211 56.8259 25.6209 54.4231 18.3273 54.4231C11.0337 54.4231 7.23346 56.8259 3.89339 58.939C2.83683 59.6036 1.83141 60.2341 0.757812 60.7795L2.59824 62.654C3.02427 62.3984 3.46737 62.1257 3.91044 61.8531C7.25052 59.74 11.0507 57.3372 18.3443 57.3372C25.638 57.3372 29.4382 59.74 32.7782 61.8531C35.9138 63.8469 38.6234 65.551 44.3322 65.551C50.041 65.551 52.7335 63.8298 55.8861 61.8531C59.2262 59.74 63.0264 57.3372 70.32 57.3372C77.6136 57.3372 81.4138 59.74 84.7709 61.8531C87.9065 63.8469 90.6331 65.551 96.3248 65.551C102.017 65.551 104.726 63.8298 107.879 61.8531C111.219 59.74 115.019 57.3372 122.313 57.3372C127.561 57.3372 130.987 58.5811 133.747 60.0637C134.412 59.4843 135.077 58.8879 135.724 58.2915" fill="url(#paint7_linear_389_6039)"/>
<path d="M135.707 33.0192C132.589 31.0936 128.857 29.1509 122.296 29.1509C115.002 29.1509 111.202 31.5537 107.862 33.6668C104.726 35.6606 102 37.3647 96.3078 37.3647C90.6161 37.3647 87.8895 35.6436 84.7539 33.6668C81.4138 31.5537 77.6136 29.1509 70.3029 29.1509C62.9923 29.1509 59.2091 31.5537 55.869 33.6668C52.7335 35.6606 50.0069 37.3647 44.3151 37.3647C38.6234 37.3647 35.8968 35.6436 32.7612 33.6668C29.4211 31.5537 25.6209 29.1509 18.3273 29.1509C11.0337 29.1509 7.23346 31.5537 3.89339 33.6668C2.83683 34.3314 1.83141 34.9619 0.757812 35.5072L2.59824 37.3818C3.02427 37.1262 3.46737 36.8535 3.91044 36.5808C7.25052 34.4677 11.0507 32.0649 18.3443 32.0649C25.638 32.0649 29.4382 34.4677 32.7782 36.5808C35.9138 38.5747 38.6234 40.2958 44.3322 40.2958C50.041 40.2958 52.7335 38.5747 55.8861 36.5808C59.2262 34.4677 63.0264 32.0649 70.32 32.0649C77.6136 32.0649 81.4138 34.4677 84.7709 36.5808C87.9065 38.5747 90.6331 40.2958 96.3248 40.2958C102.017 40.2958 104.726 38.5747 107.879 36.5808C111.219 34.4677 115.019 32.0649 122.313 32.0649C127.561 32.0649 130.987 33.3089 133.747 34.7915C134.412 34.2121 135.077 33.6157 135.724 33.0192" fill="url(#paint8_linear_389_6039)"/>
<path d="M117.473 9.92822H118.24C119.978 9.92822 121.478 10.235 121.478 12.7059C121.478 15.1769 119.825 15.3985 118.155 15.3985H117.456V9.92822H117.473ZM107.606 33.394H117.473V23.0329H117.661L122.074 33.394H133.714L127.681 22.9136C127.136 21.9764 126.505 21.4651 125.994 20.988V20.7323C129.743 19.2838 131.379 17.2219 131.379 12.3481C131.379 4.21942 126.079 1.13496 119.808 1.13496H107.623V33.411L107.606 33.394ZM104.658 1.9359C102.528 1.08384 100.159 0.606689 97.8758 0.606689C89.7301 0.606689 83.3567 8.1389 83.3567 17.5627C83.3567 26.9865 89.5427 33.9222 97.4668 33.9222C99.2732 33.9222 103.022 33.5303 104.641 32.6441L104.931 20.579C103.312 22.4194 101.472 23.5782 99.1539 23.5782C96.1376 23.5782 93.5133 20.8346 93.5133 17.29C93.5133 13.7454 95.9843 11.0018 99.0006 11.0018C101.284 11.0018 103.312 12.5014 104.931 14.2567L104.641 1.96998L104.658 1.9359ZM65.7702 21.7207L67.6107 11.8709H67.9856C68.173 13.2342 68.3605 14.6486 68.6502 16.029L69.826 21.7207H65.7702ZM63.9638 29.3893H71.5813L72.5015 33.411H83.1863L73.2854 1.13496H62.1234L52.4781 33.411H63.1629L63.9638 29.3893ZM47.5361 1.13496L43.8552 15.8245C43.4463 17.4093 43.1565 18.9941 43.1565 20.6131H42.935C42.935 18.9771 42.6453 17.3923 42.2363 15.8245L38.5554 1.13496H28.024L38.7769 33.411H47.3316L58.0847 1.13496H47.5532H47.5361ZM1.09888 33.411H10.8294V22.1979H17.0154V33.411H26.7459V1.13496H17.0154V12.0072H10.8294V1.13496H1.09888V33.411Z" fill="url(#paint9_linear_389_6039)"/>
<path d="M109.515 65.7385H115.514V46.6864H115.565L119.143 65.7385H123.881L127.459 46.6864H127.511V65.7385H133.526V36.0356H124.477L121.529 53.5029H121.478L118.53 36.0356H109.498V65.7385H109.515ZM87.4809 65.7385H93.8713L94.7915 61.4952H101.352L102.221 65.7385H108.799L101.284 36.0356H95.0813L87.4809 65.7385ZM96.1719 55.1218L98.1657 45.9707H98.2168L100.074 55.1218H96.1719ZM68.1391 65.7385H74.1547V49.5152H74.2058L80.5281 65.7385H86.714V36.0356H80.6985V51.9351H80.6474L74.6318 36.0356H68.1391V65.7385ZM54.3187 65.7385H60.6751V43.6531H66.452V36.0356H48.5417V43.6531H54.3187V65.7385ZM29.8305 65.7385H47.2125V58.121H36.1698V54.4231H45.9003V47.351H36.1698V43.6531H46.8887V36.0356H29.8134V65.7385H29.8305ZM20.8838 65.7385H27.2402V36.0356H20.8838V65.7385ZM20.4067 36.0356H13.8799L10.5569 54.0482H10.5058L7.13158 36.0356H0.724121L6.87597 65.7385H13.9822L20.4237 36.0356H20.4067Z" fill="url(#paint10_linear_389_6039)"/>
<defs>
<linearGradient id="paint0_linear_389_6039" x1="0.740771" y1="9.4338" x2="135.707" y2="9.4338" gradientUnits="userSpaceOnUse">
<stop stop-color="#D44649"/>
<stop offset="1" stop-color="#D44649"/>
</linearGradient>
<linearGradient id="paint1_linear_389_6039" x1="-774.191" y1="41.0286" x2="-772.487" y2="41.0286" gradientUnits="userSpaceOnUse">
<stop stop-color="#D44649"/>
<stop offset="1" stop-color="#D44649"/>
</linearGradient>
<linearGradient id="paint2_linear_389_6039" x1="-774.191" y1="15.7561" x2="-772.487" y2="15.7561" gradientUnits="userSpaceOnUse">
<stop stop-color="#D44649"/>
<stop offset="1" stop-color="#D44649"/>
</linearGradient>
<linearGradient id="paint3_linear_389_6039" x1="-774.191" y1="47.3508" x2="-772.487" y2="47.3508" gradientUnits="userSpaceOnUse">
<stop stop-color="#D44649"/>
<stop offset="1" stop-color="#D44649"/>
</linearGradient>
<linearGradient id="paint4_linear_389_6039" x1="-774.191" y1="22.0783" x2="-772.487" y2="22.0783" gradientUnits="userSpaceOnUse">
<stop stop-color="#D44649"/>
<stop offset="1" stop-color="#D44649"/>
</linearGradient>
<linearGradient id="paint5_linear_389_6039" x1="-774.191" y1="53.6731" x2="-772.487" y2="53.6731" gradientUnits="userSpaceOnUse">
<stop stop-color="#D44649"/>
<stop offset="1" stop-color="#D44649"/>
</linearGradient>
<linearGradient id="paint6_linear_389_6039" x1="-774.191" y1="28.3845" x2="-772.487" y2="28.3845" gradientUnits="userSpaceOnUse">
<stop stop-color="#D44649"/>
<stop offset="1" stop-color="#D44649"/>
</linearGradient>
<linearGradient id="paint7_linear_389_6039" x1="-774.191" y1="59.9956" x2="-772.487" y2="59.9956" gradientUnits="userSpaceOnUse">
<stop stop-color="#D44649"/>
<stop offset="1" stop-color="#D44649"/>
</linearGradient>
<linearGradient id="paint8_linear_389_6039" x1="-774.191" y1="34.7063" x2="-772.487" y2="34.7063" gradientUnits="userSpaceOnUse">
<stop stop-color="#D44649"/>
<stop offset="1" stop-color="#D44649"/>
</linearGradient>
<linearGradient id="paint9_linear_389_6039" x1="1.08184" y1="17.2389" x2="133.714" y2="17.2389" gradientUnits="userSpaceOnUse">
<stop stop-color="#1269A8"/>
<stop offset="1" stop-color="#1468A8"/>
</linearGradient>
<linearGradient id="paint10_linear_389_6039" x1="0.741162" y1="50.8956" x2="133.543" y2="50.8956" gradientUnits="userSpaceOnUse">
<stop stop-color="#1269A8"/>
<stop offset="1" stop-color="#1468A8"/>
</linearGradient>
</defs>
</svg>
