<svg width="21" height="21" viewBox="0 0 21 21" fill="none" xmlns="http://www.w3.org/2000/svg">
<path d="M10.2761 20.1726C4.75312 20.1726 0.276123 15.6956 0.276123 10.1726C0.276123 4.64961 4.75312 0.172607 10.2761 0.172607C15.7991 0.172607 20.2761 4.64961 20.2761 10.1726C20.2761 15.6956 15.7991 20.1726 10.2761 20.1726ZM10.2761 18.1726C12.3979 18.1726 14.4327 17.3298 15.933 15.8295C17.4333 14.3292 18.2761 12.2943 18.2761 10.1726C18.2761 8.05088 17.4333 6.01604 15.933 4.51575C14.4327 3.01546 12.3979 2.17261 10.2761 2.17261C8.15439 2.17261 6.11956 3.01546 4.61927 4.51575C3.11898 6.01604 2.27612 8.05088 2.27612 10.1726C2.27612 12.2943 3.11898 14.3292 4.61927 15.8295C6.11956 17.3298 8.15439 18.1726 10.2761 18.1726ZM9.27612 13.1726H11.2761V15.1726H9.27612V13.1726ZM11.2761 11.5276V12.1726H9.27612V10.6726C9.27612 10.4074 9.38148 10.153 9.56902 9.9655C9.75655 9.77796 10.0109 9.67261 10.2761 9.67261C10.5602 9.67259 10.8384 9.5919 11.0784 9.43994C11.3185 9.28797 11.5104 9.07097 11.6319 8.81419C11.7534 8.55741 11.7995 8.2714 11.7648 7.98945C11.7301 7.7075 11.6161 7.44119 11.436 7.22152C11.2558 7.00185 11.017 6.83784 10.7473 6.74858C10.4777 6.65932 10.1882 6.64847 9.91255 6.71731C9.63694 6.78615 9.38654 6.93184 9.19049 7.13742C8.99444 7.34301 8.8608 7.60004 8.80512 7.87861L6.84312 7.48561C6.96476 6.87769 7.24563 6.31298 7.65704 5.84919C8.06845 5.38541 8.59564 5.03919 9.18471 4.84593C9.77378 4.65267 10.4036 4.61929 11.0098 4.74922C11.616 4.87915 12.1768 5.16772 12.6349 5.58543C13.0931 6.00314 13.432 6.53501 13.6172 7.12667C13.8024 7.71833 13.8272 8.34855 13.689 8.95292C13.5508 9.55728 13.2546 10.1141 12.8306 10.5665C12.4067 11.0188 11.8703 11.3505 11.2761 11.5276Z" fill="#004A66"/>
</svg>
