<svg width="32" height="43" viewBox="0 0 32 43" fill="none" xmlns="http://www.w3.org/2000/svg">
<path d="M11.9459 32.3452H20.0539C20.3179 29.9412 21.5439 27.9572 23.5339 25.7912C23.7599 25.5472 25.1979 24.0572 25.3679 23.8452C26.7805 22.0804 27.6659 19.9526 27.9222 17.7067C28.1784 15.4608 27.7951 13.1882 26.8164 11.1506C25.8377 9.11305 24.3034 7.39333 22.3901 6.18952C20.4769 4.98571 18.2625 4.34677 16.0021 4.34629C13.7416 4.34581 11.527 4.9838 9.61324 6.18679C7.69948 7.38978 6.16442 9.10885 5.18484 11.146C4.20526 13.1832 3.821 15.4556 4.0763 17.7016C4.33161 19.9476 5.2161 22.0758 6.62792 23.8412C6.79992 24.0552 8.24192 25.5472 8.46392 25.7892C10.4559 27.9572 11.6819 29.9412 11.9459 32.3452ZM19.9999 36.3452H11.9999V38.3452H19.9999V36.3452ZM3.50792 26.3452C1.6243 23.9918 0.443815 21.1541 0.102448 18.1591C-0.238919 15.1641 0.27272 12.1336 1.57843 9.41665C2.88413 6.69972 4.93079 4.40691 7.48263 2.80233C10.0345 1.19775 12.9877 0.346685 16.0021 0.347168C19.0165 0.347651 21.9694 1.19966 24.5207 2.80506C27.0721 4.41046 29.118 6.70392 30.4228 9.42127C31.7277 12.1386 32.2383 15.1693 31.896 18.1642C31.5537 21.1591 30.3723 23.9964 28.4879 26.3492C27.2479 27.8932 23.9999 30.3452 23.9999 33.3452V38.3452C23.9999 39.406 23.5785 40.4234 22.8283 41.1736C22.0782 41.9237 21.0608 42.3452 19.9999 42.3452H11.9999C10.9391 42.3452 9.92164 41.9237 9.17149 41.1736C8.42135 40.4234 7.99992 39.406 7.99992 38.3452V33.3452C7.99992 30.3452 4.74992 27.8932 3.50792 26.3452ZM17.9999 16.3532H22.9999L13.9999 28.3532V20.3532H8.99992L17.9999 8.34516V16.3552V16.3532Z" fill="#4BA947"/>
</svg>
