<svg width="29" height="23" viewBox="0 0 29 23" fill="none" xmlns="http://www.w3.org/2000/svg">
<path d="M16.4775 15.9911H19.3213C19.7074 15.9839 20.0246 16.2928 20.0246 16.6766C20.0246 17.0598 19.7074 17.3676 19.3213 17.3622H16.4775C16.0935 17.368 15.7764 17.0598 15.7764 16.6766C15.776 16.2928 16.0935 15.9843 16.4775 15.9911ZM7.96713 14.4244C9.59635 14.4769 10.8431 14.7756 11.8055 16.5802C12.1628 17.2487 12.2573 18.3453 11.1402 18.3453H4.79629C3.67876 18.3453 3.77365 17.2487 4.12913 16.5802C5.09301 14.7756 6.34011 14.4766 7.96713 14.4244ZM16.4775 13.4267H24.8699C25.256 13.4217 25.5739 13.7291 25.5739 14.1123C25.5739 14.4961 25.256 14.8061 24.8699 14.7978H16.4775C16.0935 14.8061 15.7764 14.4961 15.7764 14.1123C15.776 13.7291 16.0935 13.4217 16.4775 13.4267ZM16.4775 10.4821H24.8699C25.256 10.4745 25.5739 10.7844 25.5739 11.1676C25.5739 11.5493 25.256 11.8578 24.8699 11.8509H16.4775C16.0935 11.8582 15.7764 11.5493 15.7764 11.1676C15.776 10.7844 16.0935 10.4741 16.4775 10.4821ZM7.98246 9.49642C8.96934 9.49642 9.76935 10.4078 9.76935 11.5348C9.76935 12.6604 8.96934 13.5725 7.98246 13.5725C6.99413 13.5725 6.19339 12.6604 6.19339 11.5348C6.19339 10.4078 6.99413 9.49642 7.98246 9.49642ZM14.5008 3.65094C15.2917 3.65094 15.93 4.28461 15.93 5.07053C15.9322 5.85355 15.2913 6.49085 14.5008 6.49085C13.7121 6.49085 13.0712 5.85355 13.0712 5.07053C13.0708 4.28461 13.7121 3.65094 14.5008 3.65094ZM14.5008 0.345215C12.2975 0.345215 10.6 1.95331 10.0774 4.01925H2.16195C1.02325 4.01925 0.000976562 4.84759 0.000976562 5.97499V20.3855C0.000976562 21.5125 1.02544 22.3452 2.16195 22.3452H26.8393C27.978 22.3452 29.001 21.5125 29.001 20.3855V5.97463C29.001 4.84759 27.978 4.01889 26.8393 4.01889H18.9242C18.403 1.95295 16.7037 0.346665 14.5008 0.345215Z" fill="#4BA947"/>
</svg>
