<svg width="42" height="42" viewBox="0 0 42 42" fill="none" xmlns="http://www.w3.org/2000/svg">
<g clip-path="url(#clip0_389_5987)">
<path d="M32.0862 32.439H27.4225V25.1292C27.4225 23.3862 27.3875 21.1427 24.99 21.1427C22.5592 21.1427 22.1882 23.0397 22.1882 25.0015V32.439H17.5227V17.4082H22.0028V19.4557H22.064C22.6905 18.2762 24.213 17.0285 26.488 17.0285C31.213 17.0285 32.088 20.14 32.088 24.1877V32.439H32.0862ZM12.2552 15.352C11.8992 15.3524 11.5466 15.2826 11.2176 15.1465C10.8886 15.0104 10.5897 14.8107 10.338 14.5589C10.0864 14.3071 9.88689 14.0081 9.75102 13.679C9.61514 13.3499 9.54556 12.9972 9.54625 12.6412C9.5466 12.1054 9.70581 11.5818 10.0038 11.1365C10.3017 10.6912 10.725 10.3442 11.2202 10.1395C11.7153 9.93478 12.26 9.88148 12.7855 9.98635C13.3109 10.0912 13.7934 10.3495 14.172 10.7286C14.5507 11.1077 14.8083 11.5906 14.9125 12.1162C15.0167 12.6417 14.9627 13.1864 14.7574 13.6813C14.552 14.1761 14.2045 14.599 13.7588 14.8964C13.3131 15.1938 12.791 15.3523 12.2552 15.352ZM14.5932 32.439H9.9155V17.4082H14.595V32.439H14.5932ZM34.4225 5.5957H7.57575C6.28775 5.5957 5.25 6.6107 5.25 7.86545V34.826C5.25 36.0807 6.2895 37.0957 7.574 37.0957H34.4155C35.7 37.0957 36.75 36.0807 36.75 34.826V7.86545C36.75 6.6107 35.7 5.5957 34.4155 5.5957H34.4225Z" fill="#3077B0"/>
</g>
<defs>
<clipPath id="clip0_389_5987">
<rect width="42" height="42" fill="white" transform="translate(0 0.345703)"/>
</clipPath>
</defs>
</svg>
