<svg width="61" height="61" viewBox="0 0 61 61" fill="none" xmlns="http://www.w3.org/2000/svg">
<path d="M30.5 5.34521C31.163 5.34521 31.7989 5.60861 32.2678 6.07745C32.7366 6.54629 33 7.18217 33 7.84521V15.3452C33 16.0083 32.7366 16.6441 32.2678 17.113C31.7989 17.5818 31.163 17.8452 30.5 17.8452C29.837 17.8452 29.2011 17.5818 28.7322 17.113C28.2634 16.6441 28 16.0083 28 15.3452V7.84521C28 7.18217 28.2634 6.54629 28.7322 6.07745C29.2011 5.60861 29.837 5.34521 30.5 5.34521ZM30.5 42.8452C31.163 42.8452 31.7989 43.1086 32.2678 43.5774C32.7366 44.0463 33 44.6822 33 45.3452V52.8452C33 53.5083 32.7366 54.1441 32.2678 54.613C31.7989 55.0818 31.163 55.3452 30.5 55.3452C29.837 55.3452 29.2011 55.0818 28.7322 54.613C28.2634 54.1441 28 53.5083 28 52.8452V45.3452C28 44.6822 28.2634 44.0463 28.7322 43.5774C29.2011 43.1086 29.837 42.8452 30.5 42.8452ZM55.5 30.3452C55.5 31.0083 55.2366 31.6441 54.7678 32.113C54.2989 32.5818 53.663 32.8452 53 32.8452H45.5C44.837 32.8452 44.2011 32.5818 43.7322 32.113C43.2634 31.6441 43 31.0083 43 30.3452C43 29.6822 43.2634 29.0463 43.7322 28.5774C44.2011 28.1086 44.837 27.8452 45.5 27.8452H53C53.663 27.8452 54.2989 28.1086 54.7678 28.5774C55.2366 29.0463 55.5 29.6822 55.5 30.3452ZM18 30.3452C18 31.0083 17.7366 31.6441 17.2678 32.113C16.7989 32.5818 16.163 32.8452 15.5 32.8452H8C7.33696 32.8452 6.70107 32.5818 6.23223 32.113C5.76339 31.6441 5.5 31.0083 5.5 30.3452C5.5 29.6822 5.76339 29.0463 6.23223 28.5774C6.70107 28.1086 7.33696 27.8452 8 27.8452H15.5C16.163 27.8452 16.7989 28.1086 17.2678 28.5774C17.7366 29.0463 18 29.6822 18 30.3452ZM48.1775 48.0227C47.7087 48.4914 47.0729 48.7547 46.41 48.7547C45.7471 48.7547 45.1113 48.4914 44.6425 48.0227L39.34 42.7202C38.8846 42.2487 38.6326 41.6172 38.6383 40.9617C38.644 40.3062 38.9069 39.6792 39.3705 39.2157C39.834 38.7521 40.461 38.4892 41.1165 38.4835C41.772 38.4778 42.4035 38.7298 42.875 39.1852L48.1775 44.4852C48.4099 44.7174 48.5943 44.9931 48.7201 45.2966C48.846 45.6001 48.9107 45.9254 48.9107 46.254C48.9107 46.5825 48.846 46.9078 48.7201 47.2113C48.5943 47.5148 48.4099 47.7905 48.1775 48.0227ZM21.66 21.5052C21.1912 21.9739 20.5554 22.2372 19.8925 22.2372C19.2296 22.2372 18.5938 21.9739 18.125 21.5052L12.825 16.2052C12.3559 15.7364 12.0922 15.1005 12.092 14.4373C12.0918 13.7742 12.355 13.1381 12.8238 12.669C13.2925 12.1999 13.9284 11.9362 14.5916 11.936C15.2548 11.9357 15.8909 12.1989 16.36 12.6677L21.66 17.9702C22.1287 18.439 22.392 19.0748 22.392 19.7377C22.392 20.4006 22.1287 21.0364 21.66 21.5052ZM12.825 48.0227C12.3563 47.5539 12.093 46.9181 12.093 46.2552C12.093 45.5923 12.3563 44.9565 12.825 44.4877L18.1275 39.1852C18.3581 38.9464 18.634 38.756 18.939 38.625C19.244 38.4939 19.572 38.425 19.904 38.4221C20.2359 38.4192 20.5651 38.4825 20.8724 38.6082C21.1796 38.7339 21.4588 38.9195 21.6935 39.1542C21.9282 39.389 22.1139 39.6681 22.2396 39.9753C22.3653 40.2826 22.4285 40.6118 22.4256 40.9437C22.4227 41.2757 22.3538 41.6037 22.2228 41.9087C22.0917 42.2137 21.9013 42.4896 21.6625 42.7202L16.3625 48.0227C16.1303 48.2552 15.8546 48.4396 15.5511 48.5654C15.2476 48.6912 14.9223 48.7559 14.5938 48.7559C14.2652 48.7559 13.9399 48.6912 13.6364 48.5654C13.3329 48.4396 13.0572 48.2552 12.825 48.0227ZM39.34 21.5052C38.8713 21.0364 38.608 20.4006 38.608 19.7377C38.608 19.0748 38.8713 18.439 39.34 17.9702L44.64 12.6677C45.1088 12.1986 45.7447 11.9349 46.4079 11.9347C47.071 11.9345 47.7071 12.1977 48.1762 12.6665C48.6454 13.1352 48.909 13.7712 48.9093 14.4343C48.9095 15.0975 48.6463 15.7336 48.1775 16.2027L42.875 21.5052C42.4062 21.9739 41.7704 22.2372 41.1075 22.2372C40.4446 22.2372 39.8088 21.9739 39.34 21.5052Z" fill="#4BA947"/>
</svg>
