<svg width="42" height="42" viewBox="0 0 42 42" fill="none" xmlns="http://www.w3.org/2000/svg">
<path d="M36.75 29.0807V35.2687C36.7502 35.7118 36.5823 36.1384 36.2803 36.4625C35.9782 36.7867 35.5645 36.9842 35.1225 37.0152C34.3577 37.0677 33.733 37.0957 33.25 37.0957C17.7852 37.0957 5.25 24.5605 5.25 9.0957C5.25 8.6127 5.27625 7.98795 5.3305 7.2232C5.36151 6.78123 5.55902 6.36747 5.88316 6.06542C6.2073 5.76337 6.63394 5.5955 7.077 5.5957H13.265C13.4821 5.59548 13.6915 5.67596 13.8525 5.82149C14.0136 5.96702 14.1148 6.16722 14.1365 6.3832C14.1768 6.7857 14.2135 7.10595 14.2485 7.3492C14.5963 9.77632 15.309 12.1369 16.3625 14.351C16.5288 14.701 16.4202 15.1192 16.1053 15.3432L12.3288 18.0417C14.6378 23.422 18.9255 27.7097 24.3057 30.0187L27.0007 26.2492C27.1109 26.0952 27.2716 25.9847 27.4549 25.9371C27.6381 25.8894 27.8323 25.9076 28.0035 25.9885C30.2173 27.04 32.5773 27.7509 35.0035 28.0972C35.2468 28.1322 35.567 28.1707 35.966 28.2092C36.1817 28.2313 36.3814 28.3327 36.5266 28.4937C36.6718 28.6547 36.752 28.8639 36.7517 29.0807H36.75Z" fill="#004A66"/>
</svg>
