<svg width="272" height="193" viewBox="0 0 272 193" fill="none" xmlns="http://www.w3.org/2000/svg">
<g opacity="0.8">
<rect y="0.345215" width="272" height="192" rx="12" fill="#F1BC00"/>
<path d="M66.2578 159.673C66.2578 161.223 65.8672 162.694 65.0859 164.087C64.3047 165.468 63.0872 166.587 61.4336 167.447C59.793 168.306 57.6706 168.736 55.0664 168.736C53.7643 168.736 52.6185 168.677 51.6289 168.56C50.6523 168.443 49.7409 168.254 48.8945 167.994C48.0482 167.72 47.1693 167.369 46.2578 166.939V160.064C47.8073 160.845 49.3698 161.444 50.9453 161.861C52.5208 162.264 53.9466 162.466 55.2227 162.466C55.9909 162.466 56.6159 162.375 57.0977 162.193C57.5924 162.011 57.957 161.763 58.1914 161.451C58.4258 161.125 58.543 160.754 58.543 160.337C58.543 159.843 58.3672 159.426 58.0156 159.087C57.6771 158.736 57.1302 158.371 56.375 157.994C55.6198 157.616 54.6237 157.147 53.3867 156.587C52.332 156.093 51.375 155.585 50.5156 155.064C49.6693 154.543 48.9401 153.951 48.3281 153.287C47.7292 152.61 47.2669 151.822 46.9414 150.923C46.6159 150.025 46.4531 148.964 46.4531 147.74C46.4531 145.904 46.9023 144.367 47.8008 143.13C48.7122 141.88 49.9753 140.943 51.5898 140.318C53.2174 139.693 55.0924 139.38 57.2148 139.38C59.0768 139.38 60.75 139.589 62.2344 140.005C63.7318 140.422 65.0729 140.897 66.2578 141.431L63.8945 147.388C62.6706 146.828 61.4661 146.386 60.2812 146.06C59.0964 145.722 57.9961 145.552 56.9805 145.552C56.3164 145.552 55.7695 145.637 55.3398 145.806C54.9232 145.962 54.6107 146.177 54.4023 146.451C54.207 146.724 54.1094 147.037 54.1094 147.388C54.1094 147.831 54.2786 148.228 54.6172 148.58C54.9688 148.931 55.5482 149.315 56.3555 149.732C57.1758 150.136 58.2891 150.663 59.6953 151.314C61.0885 151.939 62.2734 152.616 63.25 153.345C64.2266 154.061 64.9688 154.927 65.4766 155.943C65.9974 156.945 66.2578 158.189 66.2578 159.673ZM83.3867 145.708C82.4753 145.708 81.6615 145.904 80.9453 146.294C80.2292 146.672 79.6172 147.225 79.1094 147.955C78.6016 148.684 78.2109 149.576 77.9375 150.63C77.6771 151.672 77.5469 152.857 77.5469 154.185C77.5469 155.982 77.7747 157.492 78.2305 158.716C78.6862 159.94 79.3763 160.865 80.3008 161.49C81.2383 162.115 82.4102 162.427 83.8164 162.427C85.0924 162.427 86.3164 162.251 87.4883 161.9C88.6732 161.548 89.8646 161.125 91.0625 160.63V167.154C89.7995 167.714 88.5039 168.117 87.1758 168.365C85.8607 168.612 84.4609 168.736 82.9766 168.736C79.8776 168.736 77.3385 168.124 75.3594 166.9C73.3932 165.663 71.9414 163.951 71.0039 161.763C70.0794 159.576 69.6172 157.037 69.6172 154.146C69.6172 151.985 69.9167 150.005 70.5156 148.208C71.1276 146.412 72.0195 144.856 73.1914 143.541C74.3633 142.212 75.8086 141.19 77.5273 140.474C79.2591 139.745 81.2383 139.38 83.4648 139.38C84.8451 139.38 86.2969 139.543 87.8203 139.869C89.3568 140.181 90.8542 140.689 92.3125 141.392L89.9492 147.466C88.9076 146.972 87.8529 146.555 86.7852 146.216C85.7174 145.878 84.5846 145.708 83.3867 145.708ZM114.168 168.345L112.762 162.994H103.484L102.039 168.345H93.5625L102.879 139.673H113.172L122.605 168.345H114.168ZM111.16 156.666L109.93 151.978C109.799 151.47 109.611 150.748 109.363 149.81C109.116 148.86 108.868 147.883 108.621 146.88C108.387 145.865 108.204 145.031 108.074 144.38C107.957 145.031 107.788 145.839 107.566 146.802C107.358 147.753 107.137 148.697 106.902 149.634C106.681 150.572 106.486 151.353 106.316 151.978L105.086 156.666H111.16ZM152.898 168.345H142.781L132.352 148.228H132.176C132.241 148.84 132.299 149.576 132.352 150.435C132.404 151.294 132.449 152.173 132.488 153.072C132.527 153.957 132.547 154.758 132.547 155.474V168.345H125.711V139.791H135.789L146.18 159.634H146.297C146.258 159.009 146.219 158.287 146.18 157.466C146.141 156.633 146.102 155.793 146.062 154.947C146.036 154.1 146.023 153.352 146.023 152.701V139.791H152.898V168.345ZM181.902 168.345L176.062 147.779H175.887C175.939 148.313 175.991 149.035 176.043 149.947C176.108 150.858 176.167 151.841 176.219 152.896C176.271 153.951 176.297 154.966 176.297 155.943V168.345H169.461V139.791H179.734L185.691 160.064H185.848L191.688 139.791H201.98V168.345H194.891V155.826C194.891 154.927 194.904 153.964 194.93 152.935C194.969 151.893 195.008 150.917 195.047 150.005C195.099 149.081 195.145 148.352 195.184 147.818H195.008L189.246 168.345H181.902ZM225.086 168.345H208.133V139.791H225.086V145.982H215.848V150.474H224.402V156.666H215.848V162.056H225.086V168.345Z" fill="#101828"/>
</g>
</svg>
