<svg width="24" height="24" viewBox="0 0 24 24" fill="none" xmlns="http://www.w3.org/2000/svg">
<path d="M9.04894 1.27227C9.3483 0.350956 10.6517 0.350955 10.9511 1.27227L12.4697 5.94603C12.6035 6.35805 12.9875 6.63701 13.4207 6.63701H18.335C19.3037 6.63701 19.7065 7.87663 18.9228 8.44603L14.947 11.3346C14.5966 11.5892 14.4499 12.0406 14.5838 12.4526L16.1024 17.1264C16.4017 18.0477 15.3472 18.8138 14.5635 18.2444L10.5878 15.3559C10.2373 15.1012 9.7627 15.1012 9.41221 15.3559L5.43648 18.2444C4.65276 18.8138 3.59828 18.0477 3.89763 17.1264L5.41623 12.4526C5.55011 12.0406 5.40345 11.5892 5.05296 11.3346L1.07722 8.44603C0.293507 7.87663 0.696283 6.63701 1.66501 6.63701H6.57929C7.01252 6.63701 7.39647 6.35805 7.53035 5.94603L9.04894 1.27227Z" fill="#F1BC00"/>
</svg>
