<svg width="36" height="25" viewBox="0 0 36 25" fill="none" xmlns="http://www.w3.org/2000/svg">
<g clip-path="url(#clip0_354_903)">
<path d="M35.7768 0.172607H0.776123V24.1731H35.7768V0.172607Z" fill="#000066"/>
<path d="M0.776123 0.172607V2.85594L31.8637 24.1732H35.7768V21.4899L4.6892 0.172687L0.776123 0.172607ZM35.7768 0.172607V2.85586L4.6892 24.1731H0.776123V21.4898L31.8637 0.172607H35.7768Z" fill="white"/>
<path d="M15.3597 0.172607V24.1731H21.1932V0.172607H15.3597ZM0.776123 8.17277V16.1729H35.7768V8.17277H0.776123Z" fill="white"/>
<path d="M0.776123 9.7728V14.5729H35.7768V9.7728H0.776123ZM16.5264 0.172607V24.1731H20.0265V0.172607H16.5264Z" fill="#CC0000"/>
<path d="M0.776123 24.1731L12.443 16.1729H15.0517L3.38484 24.1731H0.776123ZM0.776123 0.172607L12.443 8.17277H9.8343L0.776123 1.96152L0.776123 0.172607ZM21.5012 8.17277L33.1681 0.172607H35.7768L24.1099 8.17277H21.5012ZM35.7768 24.1731L24.1099 16.1729H26.7186L35.7768 22.3843V24.1731Z" fill="#CC0000"/>
</g>
<defs>
<clipPath id="clip0_354_903">
<rect width="35" height="24" fill="white" transform="translate(0.776123 0.172607)"/>
</clipPath>
</defs>
</svg>
