<svg width="42" height="42" viewBox="0 0 42 42" fill="none" xmlns="http://www.w3.org/2000/svg">
<g clip-path="url(#clip0_389_5988)">
<path d="M37.7002 11.7172C38.5 14.8357 38.5 21.3457 38.5 21.3457C38.5 21.3457 38.5 27.8557 37.7002 30.9742C37.2557 32.698 35.9555 34.0542 34.3088 34.5127C31.318 35.3457 21 35.3457 21 35.3457C21 35.3457 10.6873 35.3457 7.69125 34.5127C6.0375 34.0472 4.739 32.6927 4.29975 30.9742C3.5 27.8557 3.5 21.3457 3.5 21.3457C3.5 21.3457 3.5 14.8357 4.29975 11.7172C4.74425 9.99345 6.0445 8.6372 7.69125 8.1787C10.6873 7.3457 21 7.3457 21 7.3457C21 7.3457 31.318 7.3457 34.3088 8.1787C35.9625 8.6442 37.261 9.9987 37.7002 11.7172ZM17.5 27.4707L28 21.3457L17.5 15.2207V27.4707Z" fill="#BD342B"/>
</g>
<defs>
<clipPath id="clip0_389_5988">
<rect width="42" height="42" fill="white" transform="translate(0 0.345703)"/>
</clipPath>
>>>>>>> 7eb594017dea74d3e665a0fb6e3ee218a4269666
</defs>
</svg>
